<?xml version="1.0" encoding="UTF-8"?>
<svg width="72px" height="76px" viewBox="0 0 72 76" version="1.1" xmlns="http://www.w3.org/2000/svg" xmlns:xlink="http://www.w3.org/1999/xlink">
    <title>Kreek_Proudly African logo-02</title>
    <g id="Page-1" stroke="none" stroke-width="1" fill="none" fill-rule="evenodd">
        <g id="Kreek_Homepage" transform="translate(-684.000000, -8061.000000)" fill-rule="nonzero">
            <g id="Kreek_Proudly-African-logo-02" transform="translate(684.000000, 8061.000000)">
                <path d="M72,3.33458711 C68.4689477,2.61052872 64.9611956,1.7412117 61.4153158,1.11101273 C54.9081816,-0.0398825557 48.3544468,-0.223131902 41.7647024,0.226052471 C29.1783119,1.08419575 17.2888117,4.68660973 5.84837163,10.1237519 C4.93542408,10.5550583 4.05001324,11.0623461 3.18366626,11.5897467 C0.904474714,12.9775253 -0.052955194,15.0871275 0.0169456621,17.8470414 L0,72.6654129 C3.53105234,73.3894713 7.03880439,74.2587883 10.5846842,74.8889873 C17.0918184,76.0398826 23.6455532,76.2231319 30.2352976,75.7739475 C42.8216881,74.9158042 54.7111883,71.3133903 66.1516284,65.8762481 C67.0645759,65.4449417 67.9499868,64.9376539 68.8163337,64.4102533 C71.0955253,63.0224747 72.0529552,60.9128725 71.9830543,58.1529586 L72,3.33458711 Z" id="Path" fill="#F1F2F2"></path>
                <g id="Group" transform="translate(9.000000, 11.000000)" fill="#ED7425">
                    <g transform="translate(24.436175, 0.000000)">
                        <path d="M2.250253,1.23832874 L2.250253,1.821469 C2.250253,2.53969966 1.92302074,2.93146184 1.25580691,2.93146184 L0.941323963,2.93146184 L0.941323963,4.62009194 L0.274110138,4.62009194 L0.274110138,0.128335887 L1.25580691,0.128335887 C1.92302074,0.128335887 2.250253,0.520098069 2.250253,1.23832874 Z M0.941323963,0.770015323 L0.941323963,2.29203392 L1.25580691,2.29203392 C1.46829539,2.29203392 1.58303917,2.1884646 1.58303917,1.86649913 L1.58303917,1.1932986 C1.58303917,0.871333129 1.46829539,0.770015323 1.25580691,0.770015323 L0.941323963,0.770015323 L0.941323963,0.770015323 Z" id="Shape"></path>
                        <path d="M5.92205392,4.62234345 C5.88593088,4.5075166 5.86043226,4.43546838 5.86043226,4.07072428 L5.86043226,3.36375115 C5.86043226,2.94497089 5.72656452,2.79186842 5.42483088,2.79186842 L5.19534332,2.79186842 L5.19534332,4.62234345 L4.52812949,4.62234345 L4.52812949,0.128335887 L5.5332,0.128335887 C6.22378756,0.128335887 6.52127143,0.468313413 6.52127143,1.16177751 L6.52127143,1.51526407 C6.52127143,1.97682296 6.38315392,2.27852487 6.08567005,2.42712432 C6.41927696,2.57572377 6.52764608,2.9157013 6.52764608,3.38401471 L6.52764608,4.0774788 C6.52764608,4.29587496 6.53402074,4.45573194 6.59989217,4.62459495 L5.92205392,4.62459495 L5.92205392,4.62234345 Z M5.19534332,0.770015323 L5.19534332,2.15018899 L5.45457926,2.15018899 C5.70319078,2.15018899 5.85618249,2.03536214 5.85618249,1.67512105 L5.85618249,1.23157422 C5.85618249,0.909608745 5.75206313,0.770015323 5.51620092,0.770015323 L5.19534332,0.770015323 L5.19534332,0.770015323 Z" id="Shape"></path>
                        <path d="M8.85227005,1.20680764 C8.85227005,0.488576974 9.20925069,0.076551231 9.86371521,0.076551231 C10.5181797,0.076551231 10.8751604,0.486325467 10.8751604,1.20680764 L10.8751604,3.54387169 C10.8751604,4.26210236 10.5181797,4.6741281 9.86371521,4.6741281 C9.20925069,4.6741281 8.85227005,4.26435387 8.85227005,3.54387169 L8.85227005,1.20680764 Z M9.51735899,3.58665032 C9.51735899,3.90861579 9.65122673,4.03019716 9.86371521,4.03019716 C10.0762037,4.03019716 10.2100714,3.90861579 10.2100714,3.58665032 L10.2100714,1.16177751 C10.2100714,0.839812034 10.0762037,0.718230667 9.86371521,0.718230667 C9.65122673,0.718230667 9.51735899,0.839812034 9.51735899,1.16177751 L9.51735899,3.58665032 Z" id="Shape"></path>
                        <path d="M13.8818724,0.128335887 L13.8818724,3.59565635 C13.8818724,3.91762182 14.0157401,4.03244867 14.2282286,4.03244867 C14.4407171,4.03244867 14.5745848,3.91762182 14.5745848,3.59565635 L14.5745848,0.128335887 L15.2056756,0.128335887 L15.2056756,3.55062621 C15.2056756,4.26885688 14.865694,4.68088262 14.2112295,4.68088262 C13.556765,4.68088262 13.2167834,4.27110839 13.2167834,3.55062621 L13.2167834,0.128335887 L13.8818724,0.128335887 L13.8818724,0.128335887 Z" id="Path"></path>
                        <path d="M17.5982959,0.128335887 L18.6522387,0.128335887 C19.3194525,0.128335887 19.6466848,0.520098069 19.6466848,1.23832874 L19.6466848,3.51009909 C19.6466848,4.22832976 19.3194525,4.62009194 18.6522387,4.62009194 L17.5982959,4.62009194 L17.5982959,0.128335887 Z M18.2633848,0.770015323 L18.2633848,3.98066401 L18.6394894,3.98066401 C18.8519779,3.98066401 18.979471,3.86583716 18.979471,3.54387169 L18.979471,1.20680764 C18.979471,0.88484217 18.8519779,0.770015323 18.6394894,0.770015323 L18.2633848,0.770015323 Z" id="Shape"></path>
                        <polygon id="Path" points="22.0095567 0.128335887 22.6767705 0.128335887 22.6767705 3.98066401 23.7732111 3.98066401 23.7732111 4.62234345 22.0095567 4.62234345"></polygon>
                        <polygon id="Path" points="26.2529516 3.13184595 25.4114972 0.128335887 26.1084594 0.128335887 26.6163069 2.17495556 27.1241544 0.128335887 27.7616198 0.128335887 26.9201654 3.13184595 26.9201654 4.62009194 26.2529516 4.62009194"></polygon>
                        <path d="M2.4308682,11.0368863 L1.75940461,11.0368863 L1.64466083,10.2218408 L0.826580184,10.2218408 L0.711836406,11.0368863 L0.0998695853,11.0368863 L0.777707834,6.54287874 L1.75302995,6.54287874 L2.4308682,11.0368863 Z M0.911575576,9.6116825 L1.55329078,9.6116825 L1.23243318,7.33991215 L0.911575576,9.6116825 Z" id="Shape"></path>
                        <polygon id="Path" points="5.44395484 8.53996527 6.30453318 8.53996527 6.30453318 9.1816447 5.44395484 9.1816447 5.44395484 11.0368863 4.77674101 11.0368863 4.77674101 6.54287874 6.54039539 6.54287874 6.54039539 7.18455818 5.44395484 7.18455818 5.44395484 8.53996527"></polygon>
                        <path d="M10.2929419,11.0368863 C10.2568189,10.9220595 10.2313203,10.8522627 10.2313203,10.4852671 L10.2313203,9.778294 C10.2313203,9.36176525 10.0974525,9.20641128 9.79571889,9.20641128 L9.56623134,9.20641128 L9.56623134,11.0346348 L8.89901751,11.0346348 L8.89901751,6.54287874 L9.90408802,6.54287874 C10.5946756,6.54287874 10.8921594,6.88285627 10.8921594,7.57632036 L10.8921594,7.92980693 C10.8921594,8.39136582 10.7519171,8.69306773 10.4565581,8.84166718 C10.790165,8.98801512 10.8985341,9.33024415 10.8985341,9.79855756 L10.8985341,10.4920217 C10.8985341,10.7104178 10.9049088,10.8702748 10.9707802,11.0368863 L10.2929419,11.0368863 Z M9.56623134,7.18455818 L9.56623134,8.56473184 L9.82759217,8.56473184 C10.0762037,8.56473184 10.2270705,8.44765349 10.2270705,8.08966391 L10.2270705,7.64611707 C10.2270705,7.3241516 10.125076,7.18455818 9.88708894,7.18455818 L9.56623134,7.18455818 Z" id="Shape"></path>
                        <polygon id="Path" points="13.3740249 6.54287874 14.0412387 6.54287874 14.0412387 11.0368863 13.3740249 11.0368863"></polygon>
                        <path d="M18.4949972,9.36176525 L18.4949972,9.95841455 C18.4949972,10.6766452 18.1550157,11.088671 17.5005512,11.088671 C16.8460866,11.088671 16.5061051,10.6788967 16.5061051,9.95841455 L16.5061051,7.6213505 C16.5061051,6.90311983 16.8460866,6.49109409 17.5005512,6.49109409 C18.1550157,6.49109409 18.4949972,6.90086832 18.4949972,7.6213505 L18.4949972,8.05814281 L17.8639065,8.05814281 L17.8639065,7.57632036 C17.8639065,7.25660639 17.7300387,7.13277352 17.5175502,7.13277352 C17.3050618,7.13277352 17.171194,7.25435489 17.171194,7.57632036 L17.171194,10.0034447 C17.171194,10.3231586 17.3050618,10.440237 17.5175502,10.440237 C17.7300387,10.440237 17.8639065,10.3231586 17.8639065,10.0034447 L17.8639065,9.36176525 L18.4949972,9.36176525 Z" id="Path"></path>
                        <path d="M23.0953728,11.0368863 L22.4217843,11.0368863 L22.3070406,10.2218408 L21.4889599,10.2218408 L21.3742161,11.0368863 L20.7622493,11.0368863 L21.4400876,6.54287874 L22.4154097,6.54287874 L23.0953728,11.0368863 Z M21.5739553,9.6116825 L22.2177954,9.6116825 L21.8969378,7.33991215 L21.5739553,9.6116825 Z" id="Shape"></path>
                        <polygon id="Path" points="26.0362134 7.78120748 26.0362134 11.0368863 25.4369959 11.0368863 25.4369959 6.54287874 26.2742005 6.54287874 26.9584134 9.23342936 26.9584134 6.54287874 27.5512562 6.54287874 27.5512562 11.0368863 26.8670433 11.0368863"></polygon>
                    </g>
                    <g transform="translate(0.000000, 14.634794)">
                        <g transform="translate(12.749309, 0.000000)">
                            <path d="M39.4739848,0.742997242 C39.433612,0.742997242 39.3996138,0.736242721 39.3677406,0.718230667 C39.3337424,0.706973133 39.2997442,0.682206558 39.2721207,0.65293697 C39.248747,0.628170395 39.2274982,0.594397793 39.2104991,0.558373685 C39.1998747,0.522349576 39.1935,0.488576974 39.1935,0.445798345 C39.1935,0.403019716 39.1998747,0.369247114 39.2104991,0.333223005 C39.2274982,0.297198897 39.2508719,0.261174788 39.2721207,0.23865972 C39.3507415,0.155353969 39.4739848,0.12608438 39.580229,0.173366023 C39.6142272,0.184623557 39.6418507,0.209390132 39.6694742,0.23865972 C39.6970977,0.261174788 39.7140968,0.297198897 39.7310959,0.333223005 C39.7417203,0.369247114 39.7480949,0.405271223 39.7480949,0.445798345 C39.7480949,0.486325467 39.7417203,0.522349576 39.7310959,0.558373685 C39.7140968,0.594397793 39.6970977,0.630421902 39.6694742,0.65293697 C39.6418507,0.682206558 39.6142272,0.706973133 39.580229,0.718230667 C39.5462309,0.736242721 39.5079829,0.742997242 39.4739848,0.742997242 Z" id="Path"></path>
                            <path d="M37.4914673,0.648599448 C37.4914673,0.368296418 37.6210853,0.148599448 37.7719521,0.148599448 L37.7719521,0.148599448 C37.9291935,0.148599448 38.0524369,0.368296418 38.0524369,0.648599448 L38.0524369,0.648599448 C38.0524369,0.928902479 37.9291935,1.14859945 37.7719521,1.14859945 L37.7719521,1.14859945 C37.6210853,1.14859945 37.4914673,0.928902479 37.4914673,0.648599448 Z M35.7915594,0.648599448 C35.7915594,0.368296418 35.9211774,0.148599448 36.0720442,0.148599448 L36.0720442,0.148599448 C36.2292857,0.148599448 36.3589037,0.368296418 36.3589037,0.648599448 L36.3589037,0.648599448 C36.3589037,0.928902479 36.2292857,1.14859945 36.0720442,1.14859945 L36.0720442,1.14859945 C35.9211774,1.14859945 35.7915594,0.928902479 35.7915594,0.648599448 Z M34.0959014,0.648599448 C34.0959014,0.368296418 34.2191447,0.148599448 34.3763862,0.148599448 L34.3763862,0.148599448 C34.527253,0.148599448 34.656871,0.368296418 34.656871,0.648599448 L34.656871,0.648599448 C34.656871,0.928902479 34.527253,1.14859945 34.3763862,1.14859945 L34.3763862,1.14859945 C34.2191447,1.14859945 34.0959014,0.928902479 34.0959014,0.648599448 Z M32.3959935,0.648599448 C32.3959935,0.368296418 32.5256115,0.148599448 32.6764783,0.148599448 L32.6764783,0.148599448 C32.8337198,0.148599448 32.9569631,0.368296418 32.9569631,0.648599448 L32.9569631,0.648599448 C32.9569631,0.928902479 32.8337198,1.14859945 32.6764783,1.14859945 L32.6764783,1.14859945 C32.5234866,1.14859945 32.3959935,0.928902479 32.3959935,0.648599448 Z M30.7003355,0.648599448 C30.7003355,0.368296418 30.8235788,0.148599448 30.9808203,0.148599448 L30.9808203,0.148599448 C31.1316871,0.148599448 31.2613051,0.368296418 31.2613051,0.648599448 L31.2613051,0.648599448 C31.2613051,0.928902479 31.1316871,1.14859945 30.9808203,1.14859945 L30.9808203,1.14859945 C30.8235788,1.14859945 30.7003355,0.928902479 30.7003355,0.648599448 Z M28.9983028,0.648599448 C28.9983028,0.368296418 29.1215461,0.148599448 29.2787876,0.148599448 L29.2787876,0.148599448 C29.436029,0.148599448 29.5592724,0.368296418 29.5592724,0.648599448 L29.5592724,0.648599448 C29.5592724,0.928902479 29.436029,1.14859945 29.2787876,1.14859945 L29.2787876,1.14859945 C29.1215461,1.14859945 28.9983028,0.928902479 28.9983028,0.648599448 Z M27.3026447,0.648599448 C27.3026447,0.368296418 27.425888,0.148599448 27.5831295,0.148599448 L27.5831295,0.148599448 C27.7339963,0.148599448 27.8636143,0.368296418 27.8636143,0.648599448 L27.8636143,0.648599448 C27.8636143,0.928902479 27.7339963,1.14859945 27.5831295,1.14859945 L27.5831295,1.14859945 C27.4280129,1.14859945 27.3026447,0.928902479 27.3026447,0.648599448 Z M25.6027369,0.648599448 C25.6027369,0.368296418 25.7259802,0.148599448 25.8832217,0.148599448 L25.8832217,0.148599448 C26.0404631,0.148599448 26.1637065,0.368296418 26.1637065,0.648599448 L26.1637065,0.648599448 C26.1637065,0.928902479 26.0404631,1.14859945 25.8832217,1.14859945 L25.8832217,1.14859945 C25.7259802,1.14859945 25.6027369,0.928902479 25.6027369,0.648599448 Z M23.902829,0.648599448 C23.902829,0.368296418 24.032447,0.148599448 24.1833138,0.148599448 L24.1833138,0.148599448 C24.3405553,0.148599448 24.4637986,0.368296418 24.4637986,0.648599448 L24.4637986,0.648599448 C24.4637986,0.928902479 24.3405553,1.14859945 24.1833138,1.14859945 L24.1833138,1.14859945 C24.0303221,1.14859945 23.902829,0.928902479 23.902829,0.648599448 Z M22.207171,0.648599448 C22.207171,0.368296418 22.3304143,0.148599448 22.4876558,0.148599448 L22.4876558,0.148599448 C22.6385226,0.148599448 22.7681406,0.368296418 22.7681406,0.648599448 L22.7681406,0.648599448 C22.7681406,0.928902479 22.6385226,1.14859945 22.4876558,1.14859945 L22.4876558,1.14859945 C22.3304143,1.14859945 22.207171,0.928902479 22.207171,0.648599448 Z M20.5072631,0.648599448 C20.5072631,0.368296418 20.6305065,0.148599448 20.7877479,0.148599448 L20.7877479,0.148599448 C20.9449894,0.148599448 21.0682327,0.368296418 21.0682327,0.648599448 L21.0682327,0.648599448 C21.0682327,0.928902479 20.9449894,1.14859945 20.7877479,1.14859945 L20.7877479,1.14859945 C20.6305065,1.14859945 20.5072631,0.928902479 20.5072631,0.648599448 Z M18.8116051,0.648599448 C18.8116051,0.368296418 18.9348484,0.148599448 19.0920899,0.148599448 L19.0920899,0.148599448 C19.2429567,0.148599448 19.3725747,0.368296418 19.3725747,0.648599448 L19.3725747,0.648599448 C19.3725747,0.928902479 19.2429567,1.14859945 19.0920899,1.14859945 L19.0920899,1.14859945 C18.9348484,1.14859945 18.8116051,0.928902479 18.8116051,0.648599448 Z M17.1095724,0.648599448 C17.1095724,0.368296418 17.2328157,0.148599448 17.3900571,0.148599448 L17.3900571,0.148599448 C17.5472986,0.148599448 17.6705419,0.368296418 17.6705419,0.648599448 L17.6705419,0.648599448 C17.6705419,0.928902479 17.5472986,1.14859945 17.3900571,1.14859945 L17.3900571,1.14859945 C17.2328157,1.14859945 17.1095724,0.928902479 17.1095724,0.648599448 Z M15.4139143,0.648599448 C15.4139143,0.368296418 15.5371576,0.148599448 15.6901493,0.148599448 L15.6901493,0.148599448 C15.8473908,0.148599448 15.9706341,0.368296418 15.9706341,0.648599448 L15.9706341,0.648599448 C15.9706341,0.928902479 15.8473908,1.14859945 15.6901493,1.14859945 L15.6901493,1.14859945 C15.5371576,1.14859945 15.4139143,0.928902479 15.4139143,0.648599448 Z M13.7140065,0.648599448 C13.7140065,0.368296418 13.8372498,0.148599448 13.9944912,0.148599448 L13.9944912,0.148599448 C14.1453581,0.148599448 14.274976,0.368296418 14.274976,0.648599448 L14.274976,0.648599448 C14.274976,0.928902479 14.1453581,1.14859945 13.9944912,1.14859945 L13.9944912,1.14859945 C13.8372498,1.14859945 13.7140065,0.928902479 13.7140065,0.648599448 Z M12.0119737,0.648599448 C12.0119737,0.368296418 12.1415917,0.148599448 12.2924585,0.148599448 L12.2924585,0.148599448 C12.4497,0.148599448 12.5729433,0.368296418 12.5729433,0.648599448 L12.5729433,0.648599448 C12.5729433,0.928902479 12.4497,1.14859945 12.2924585,1.14859945 L12.2924585,1.14859945 C12.1415917,1.14859945 12.0119737,0.928902479 12.0119737,0.648599448 Z M10.3184406,0.648599448 C10.3184406,0.368296418 10.4416839,0.148599448 10.5989253,0.148599448 L10.5989253,0.148599448 C10.7497922,0.148599448 10.8794101,0.368296418 10.8794101,0.648599448 L10.8794101,0.648599448 C10.8794101,0.928902479 10.7497922,1.14859945 10.5989253,1.14859945 L10.5989253,1.14859945 C10.4416839,1.14859945 10.3184406,0.928902479 10.3184406,0.648599448 Z M8.61640783,0.648599448 C8.61640783,0.368296418 8.74602581,0.148599448 8.89689263,0.148599448 L8.89689263,0.148599448 C9.0541341,0.148599448 9.17737742,0.368296418 9.17737742,0.648599448 L9.17737742,0.648599448 C9.17737742,0.928902479 9.0541341,1.14859945 8.89689263,1.14859945 L8.89689263,1.14859945 C8.74602581,1.14859945 8.61640783,0.928902479 8.61640783,0.648599448 Z M6.92287465,0.648599448 C6.92287465,0.368296418 7.04611797,0.148599448 7.20335945,0.148599448 L7.20335945,0.148599448 C7.35422627,0.148599448 7.48384424,0.368296418 7.48384424,0.648599448 L7.48384424,0.648599448 C7.48384424,0.928902479 7.35422627,1.14859945 7.20335945,1.14859945 L7.20335945,1.14859945 C7.04611797,1.14859945 6.92287465,0.928902479 6.92287465,0.648599448 Z M5.22084194,0.648599448 C5.22084194,0.368296418 5.34408525,0.148599448 5.50132673,0.148599448 L5.50132673,0.148599448 C5.6585682,0.148599448 5.78181152,0.368296418 5.78181152,0.648599448 L5.78181152,0.648599448 C5.78181152,0.928902479 5.6585682,1.14859945 5.50132673,1.14859945 L5.50132673,1.14859945 C5.34408525,1.14859945 5.22084194,0.928902479 5.22084194,0.648599448 Z M3.51880922,0.648599448 C3.51880922,0.368296418 3.64842719,0.148599448 3.80566866,0.148599448 L3.80566866,0.148599448 C3.95653548,0.148599448 4.0797788,0.368296418 4.0797788,0.648599448 L4.0797788,0.648599448 C4.0797788,0.928902479 3.95653548,1.14859945 3.80566866,1.14859945 L3.80566866,1.14859945 C3.64842719,1.14859945 3.51880922,0.928902479 3.51880922,0.648599448 Z M1.82527604,0.648599448 C1.82527604,0.368296418 1.94851935,0.148599448 2.10576083,0.148599448 L2.10576083,0.148599448 C2.25662765,0.148599448 2.38624562,0.368296418 2.38624562,0.648599448 L2.38624562,0.648599448 C2.38624562,0.928902479 2.25662765,1.14859945 2.10576083,1.14859945 L2.10576083,1.14859945 C1.94851935,1.14859945 1.82527604,0.928902479 1.82527604,0.648599448 Z" id="Shape"></path>
                            <path d="M0.403728111,0.742997242 C0.331482028,0.742997242 0.25711106,0.713727653 0.20823871,0.65293697 C0.180615207,0.628170395 0.157241475,0.594397793 0.146617051,0.558373685 C0.129617972,0.522349576 0.123243318,0.488576974 0.123243318,0.445798345 C0.123243318,0.403019716 0.129617972,0.369247114 0.146617051,0.333223005 C0.157241475,0.297198897 0.180615207,0.261174788 0.20823871,0.23865972 C0.231612442,0.209390132 0.263485714,0.184623557 0.297483871,0.173366023 C0.3633553,0.144096435 0.444100922,0.144096435 0.50997235,0.173366023 C0.543970507,0.184623557 0.577968664,0.209390132 0.599217512,0.23865972 C0.626841014,0.261174788 0.650214747,0.297198897 0.660839171,0.333223005 C0.677838249,0.369247114 0.684212903,0.405271223 0.684212903,0.445798345 C0.684212903,0.486325467 0.677838249,0.522349576 0.660839171,0.558373685 C0.650214747,0.594397793 0.626841014,0.630421902 0.599217512,0.65293697 C0.575843779,0.682206558 0.541845622,0.706973133 0.50997235,0.718230667 C0.478099078,0.736242721 0.444100922,0.742997242 0.403728111,0.742997242 Z" id="Path"></path>
                        </g>
                        <g id="Oval">
                            <ellipse cx="7.95344378" cy="17.6675738" rx="1" ry="1"></ellipse>
                            <ellipse cx="15.6816498" cy="38.9060374" rx="1" ry="1"></ellipse>
                            <ellipse cx="9.40049032" cy="4.12476045" rx="1" ry="1"></ellipse>
                            <ellipse cx="10.1229512" cy="0.583140259" rx="1" ry="1"></ellipse>
                            <ellipse cx="23.9920742" cy="24.372561" rx="1" ry="1"></ellipse>
                            <ellipse cx="7.9640682" cy="7.1913127" rx="1" ry="1"></ellipse>
                            <ellipse cx="13.9201203" cy="24.7485627" rx="1" ry="1"></ellipse>
                            <ellipse cx="23.5033507" cy="12.9551701" rx="1" ry="1"></ellipse>
                            <ellipse cx="5.56294839" cy="17.0168883" rx="1" ry="1"></ellipse>
                            <ellipse cx="10.6732963" cy="3.50559608" rx="1" ry="1"></ellipse>
                            <ellipse cx="16.489106" cy="21.4748718" rx="1" ry="1"></ellipse>
                            <ellipse cx="24.3618041" cy="31.4085198" rx="1" ry="1"></ellipse>
                            <ellipse cx="12.9108" cy="8.84391868" rx="1" ry="1"></ellipse>
                            <ellipse cx="24.4298005" cy="11.7416079" rx="1" ry="1"></ellipse>
                            <ellipse cx="16.0301309" cy="35.0244397" rx="1" ry="1"></ellipse>
                            <ellipse cx="22.4154097" cy="28.9588804" rx="1" ry="1"></ellipse>
                            <ellipse cx="9.91258756" cy="2.03761365" rx="1" ry="1"></ellipse>
                            <ellipse cx="14.4492166" cy="29.836968" rx="1" ry="1"></ellipse>
                            <ellipse cx="22.9763793" cy="7.27912146" rx="1" ry="1"></ellipse>
                            <ellipse cx="10.8879097" cy="16.8367678" rx="1" ry="1"></ellipse>
                            <ellipse cx="12.4773235" cy="10.4582491" rx="1" ry="1"></ellipse>
                            <ellipse cx="20.8281207" cy="16.0554949" rx="1" ry="1"></ellipse>
                            <ellipse cx="16.3573631" cy="13.6666462" rx="1" ry="1"></ellipse>
                            <ellipse cx="10.2270705" cy="5.3675922" rx="1" ry="1"></ellipse>
                            <ellipse cx="24.3150567" cy="18.4871223" rx="1" ry="1"></ellipse>
                            <ellipse cx="23.7795857" cy="19.889811" rx="1" ry="1"></ellipse>
                            <ellipse cx="12.1054687" cy="13.927821" rx="1" ry="1"></ellipse>
                            <ellipse cx="15.4394129" cy="32.1357565" rx="1" ry="1"></ellipse>
                            <ellipse cx="15.0654332" cy="37.6924752" rx="1" ry="1"></ellipse>
                            <ellipse cx="25.8938461" cy="21.1303913" rx="1" ry="1"></ellipse>
                            <ellipse cx="29.1810429" cy="32.1312534" rx="1" ry="1"></ellipse>
                            <ellipse cx="22.704394" cy="33.8311411" rx="1" ry="1"></ellipse>
                            <ellipse cx="20.1502825" cy="17.3275963" rx="1" ry="1"></ellipse>
                            <ellipse cx="16.635723" cy="41.4029584" rx="1" ry="1"></ellipse>
                            <ellipse cx="21.6801995" cy="37.8523322" rx="1" ry="1"></ellipse>
                            <ellipse cx="19.6105618" cy="8.48818061" rx="1" ry="1"></ellipse>
                            <ellipse cx="10.8921594" cy="18.3700439" rx="1" ry="1"></ellipse>
                            <ellipse cx="9.99120829" cy="9.6769762" rx="1" ry="1"></ellipse>
                            <ellipse cx="6.4978977" cy="2.46765145" rx="1" ry="1"></ellipse>
                            <ellipse cx="21.837441" cy="17.2510451" rx="1" ry="1"></ellipse>
                            <ellipse cx="5.54382442" cy="9.81882113" rx="1" ry="1"></ellipse>
                            <ellipse cx="23.2122415" cy="21.5491715" rx="1" ry="1"></ellipse>
                            <ellipse cx="23.847582" cy="29.6906201" rx="1" ry="1"></ellipse>
                            <ellipse cx="6.41927696" cy="7.16654612" rx="1" ry="1"></ellipse>
                            <ellipse cx="10.6329235" cy="8.06940035" rx="1" ry="1"></ellipse>
                            <ellipse cx="17.3603088" cy="38.5728144" rx="1" ry="1"></ellipse>
                            <ellipse cx="15.3884157" cy="22.2809112" rx="1" ry="1"></ellipse>
                            <ellipse cx="17.9021544" cy="39.9642456" rx="1" ry="1"></ellipse>
                            <ellipse cx="0.645964977" cy="9.66571866" rx="1" ry="1"></ellipse>
                            <ellipse cx="23.3461092" cy="8.70657677" rx="1" ry="1"></ellipse>
                            <ellipse cx="0.801081567" cy="14.2025049" rx="1" ry="1"></ellipse>
                            <ellipse cx="27.6065032" cy="18.2597201" rx="1" ry="1"></ellipse>
                            <ellipse cx="3.52305899" cy="18.1899234" rx="1" ry="1"></ellipse>
                            <ellipse cx="16.9119581" cy="9.85259373" rx="1" ry="1"></ellipse>
                            <ellipse cx="3.28932166" cy="15.4565941" rx="1" ry="1"></ellipse>
                            <ellipse cx="19.4660696" cy="24.7147901" rx="1" ry="1"></ellipse>
                            <ellipse cx="13.9562433" cy="21.4523567" rx="1" ry="1"></ellipse>
                            <ellipse cx="18.1826392" cy="27.7092941" rx="1" ry="1"></ellipse>
                            <ellipse cx="29.8865046" cy="16.2874001" rx="1" ry="1"></ellipse>
                            <ellipse cx="21.1808516" cy="18.5726795" rx="1" ry="1"></ellipse>
                            <ellipse cx="17.8447825" cy="24.7913413" rx="1" ry="1"></ellipse>
                            <ellipse cx="21.6037037" cy="34.9794095" rx="1" ry="1"></ellipse>
                            <ellipse cx="8.07031244" cy="13.1217816" rx="1" ry="1"></ellipse>
                            <ellipse cx="15.5286581" cy="9.93589948" rx="1" ry="1"></ellipse>
                            <ellipse cx="16.8545862" cy="19.9911288" rx="1" ry="1"></ellipse>
                            <ellipse cx="20.5221373" cy="7.10125243" rx="1" ry="1"></ellipse>
                            <ellipse cx="17.2668138" cy="18.241708" rx="1" ry="1"></ellipse>
                            <ellipse cx="4.14565023" cy="16.6634018" rx="1" ry="1"></ellipse>
                            <ellipse cx="19.1239631" cy="15.9519256" rx="1" ry="1"></ellipse>
                            <ellipse cx="21.8289415" cy="22.4655348" rx="1" ry="1"></ellipse>
                            <ellipse cx="16.729218" cy="23.4359342" rx="1" ry="1"></ellipse>
                            <ellipse cx="5.6033212" cy="1.48599448" rx="1" ry="1"></ellipse>
                            <ellipse cx="29.3722825" cy="17.5482439" rx="1" ry="1"></ellipse>
                            <ellipse cx="16.3106157" cy="40.0655634" rx="1" ry="1"></ellipse>
                            <ellipse cx="20.8111217" cy="5.59274287" rx="1" ry="1"></ellipse>
                            <ellipse cx="16.6612217" cy="30.7871039" rx="1" ry="1"></ellipse>
                            <ellipse cx="8.97976313" cy="8.4521565" rx="1" ry="1"></ellipse>
                            <ellipse cx="26.6970525" cy="19.6691633" rx="1" ry="1"></ellipse>
                            <ellipse cx="15.3140447" cy="23.9402717" rx="1" ry="1"></ellipse>
                            <ellipse cx="19.255706" cy="5.75485136" rx="1" ry="1"></ellipse>
                            <ellipse cx="19.1324627" cy="11.088671" rx="1" ry="1"></ellipse>
                            <ellipse cx="12.9150498" cy="23.5935397" rx="1" ry="1"></ellipse>
                            <ellipse cx="7.17361106" cy="14.6302911" rx="1" ry="1"></ellipse>
                            <ellipse cx="3.25957327" cy="11.5885055" rx="1" ry="1"></ellipse>
                            <ellipse cx="22.9572553" cy="11.3363367" rx="1" ry="1"></ellipse>
                            <ellipse cx="10.9346571" cy="12.6422106" rx="1" ry="1"></ellipse>
                            <ellipse cx="24.52967" cy="21.1078762" rx="1" ry="1"></ellipse>
                            <ellipse cx="21.0236101" cy="8.94073348" rx="1" ry="1"></ellipse>
                            <ellipse cx="15.1121806" cy="11.3340852" rx="1" ry="1"></ellipse>
                            <ellipse cx="28.5605765" cy="34.1553581" rx="1" ry="1"></ellipse>
                            <ellipse cx="8.48678986" cy="9.99894167" rx="1" ry="1"></ellipse>
                            <ellipse cx="22.6278982" cy="27.353556" rx="1" ry="1"></ellipse>
                            <ellipse cx="26.2508267" cy="22.528577" rx="1" ry="1"></ellipse>
                            <ellipse cx="18.5608687" cy="23.4967249" rx="1" ry="1"></ellipse>
                            <ellipse cx="19.1877097" cy="40.8400817" rx="1" ry="1"></ellipse>
                            <ellipse cx="23.4651028" cy="17.2037634" rx="1" ry="1"></ellipse>
                            <ellipse cx="8.72265207" cy="0.817296966" rx="1" ry="1"></ellipse>
                            <ellipse cx="7.16086175" cy="5.7683604" rx="1" ry="1"></ellipse>
                            <ellipse cx="17.6917908" cy="11.262037" rx="1" ry="1"></ellipse>
                            <ellipse cx="13.6906327" cy="3.12283992" rx="1" ry="1"></ellipse>
                            <ellipse cx="6.47877373" cy="4.32964756" rx="1" ry="1"></ellipse>
                            <ellipse cx="6.65938894" cy="12.7795526" rx="1" ry="1"></ellipse>
                            <ellipse cx="20.2565267" cy="26.176018" rx="1" ry="1"></ellipse>
                            <ellipse cx="24.8717765" cy="27.1103933" rx="1" ry="1"></ellipse>
                            <ellipse cx="22.4451581" cy="15.91365" rx="1" ry="1"></ellipse>
                            <ellipse cx="17.6110452" cy="12.9619246" rx="1" ry="1"></ellipse>
                            <ellipse cx="15.7283972" cy="33.5519542" rx="1" ry="1"></ellipse>
                            <ellipse cx="14.2728512" cy="8.69081622" rx="1" ry="1"></ellipse>
                            <ellipse cx="25.1671355" cy="13.1195301" rx="1" ry="1"></ellipse>
                            <ellipse cx="12.2457111" cy="3.15886403" rx="1" ry="1"></ellipse>
                            <ellipse cx="4.93398249" cy="4.6065829" rx="1" ry="1"></ellipse>
                            <ellipse cx="14.3620963" cy="26.6893615" rx="1" ry="1"></ellipse>
                            <ellipse cx="15.197176" cy="20.4459332" rx="1" ry="1"></ellipse>
                            <ellipse cx="4.51113041" cy="2.29203392" rx="1" ry="1"></ellipse>
                            <ellipse cx="28.0463544" cy="32.7616753" rx="1" ry="1"></ellipse>
                            <ellipse cx="16.4487332" cy="25.1268158" rx="1" ry="1"></ellipse>
                            <ellipse cx="19.4936931" cy="20.5067239" rx="1" ry="1"></ellipse>
                            <ellipse cx="15.0569336" cy="36.2222413" rx="1" ry="1"></ellipse>
                            <ellipse cx="7.00362028" cy="10.1295291" rx="1" ry="1"></ellipse>
                            <ellipse cx="16.4869811" cy="37.3502462" rx="1" ry="1"></ellipse>
                            <ellipse cx="15.5350327" cy="8.39812034" rx="1" ry="1"></ellipse>
                            <ellipse cx="12.7896816" cy="6.03628971" rx="1" ry="1"></ellipse>
                            <ellipse cx="11.3043871" cy="2.00158954" rx="1" ry="1"></ellipse>
                            <ellipse cx="15.3140447" cy="17.5369864" rx="1" ry="1"></ellipse>
                            <ellipse cx="20.9768627" cy="24.8453775" rx="1" ry="1"></ellipse>
                            <ellipse cx="22.2666677" cy="36.3933558" rx="1" ry="1"></ellipse>
                            <ellipse cx="0.499347926" cy="11.2417734" rx="1" ry="1"></ellipse>
                            <ellipse cx="13.2231581" cy="15.6682358" rx="1" ry="1"></ellipse>
                            <ellipse cx="23.9304525" cy="15.8123322" rx="1" ry="1"></ellipse>
                            <ellipse cx="2.53711244" cy="5.95748698" rx="1" ry="1"></ellipse>
                            <ellipse cx="19.9866664" cy="37.6406906" rx="1" ry="1"></ellipse>
                            <ellipse cx="10.936782" cy="10.9603351" rx="1" ry="1"></ellipse>
                            <ellipse cx="20.4052687" cy="11.7843866" rx="1" ry="1"></ellipse>
                            <ellipse cx="6.53189585" cy="18.1989294" rx="1" ry="1"></ellipse>
                            <ellipse cx="4.16052442" cy="8.85292471" rx="1" ry="1"></ellipse>
                            <ellipse cx="4.92760783" cy="18.4871223" rx="1" ry="1"></ellipse>
                            <ellipse cx="18.9029751" cy="13.9683481" rx="1" ry="1"></ellipse>
                            <ellipse cx="16.6973447" cy="28.0650322" rx="1" ry="1"></ellipse>
                            <ellipse cx="16.7929645" cy="8.04913679" rx="1" ry="1"></ellipse>
                            <ellipse cx="1.59153871" cy="6.8941138" rx="1" ry="1"></ellipse>
                            <ellipse cx="16.4997304" cy="4.15628154" rx="1" ry="1"></ellipse>
                            <ellipse cx="14.810447" cy="28.2316437" rx="1" ry="1"></ellipse>
                            <ellipse cx="11.2151419" cy="6.48433956" rx="1" ry="1"></ellipse>
                            <ellipse cx="3.79291935" cy="3.39752375" rx="1" ry="1"></ellipse>
                            <ellipse cx="8.01719032" cy="4.42421085" rx="1" ry="1"></ellipse>
                            <ellipse cx="13.833" cy="31.5616222" rx="1" ry="1"></ellipse>
                            <ellipse cx="21.8331912" cy="7.84875268" rx="1" ry="1"></ellipse>
                            <ellipse cx="17.7151645" cy="29.3889182" rx="1" ry="1"></ellipse>
                            <ellipse cx="12.0927194" cy="19.1625743" rx="1" ry="1"></ellipse>
                            <ellipse cx="16.4614825" cy="16.9403371" rx="1" ry="1"></ellipse>
                            <ellipse cx="16.9884539" cy="36.0173542" rx="1" ry="1"></ellipse>
                            <ellipse cx="13.9264949" cy="17.0754275" rx="1" ry="1"></ellipse>
                            <ellipse cx="2.29700046" cy="8.92272142" rx="1" ry="1"></ellipse>
                            <ellipse cx="23.1484949" cy="35.3824293" rx="1" ry="1"></ellipse>
                            <ellipse cx="17.7789111" cy="3.34123608" rx="1" ry="1"></ellipse>
                            <ellipse cx="24.659288" cy="22.5353315" rx="1" ry="1"></ellipse>
                            <ellipse cx="11.6656175" cy="4.78445194" rx="1" ry="1"></ellipse>
                            <ellipse cx="20.7962475" cy="4.20581469" rx="1" ry="1"></ellipse>
                            <ellipse cx="20.0992853" cy="34.62142" rx="1" ry="1"></ellipse>
                            <ellipse cx="9.61935346" cy="6.95265298" rx="1" ry="1"></ellipse>
                            <ellipse cx="14.5299622" cy="18.7730636" rx="1" ry="1"></ellipse>
                            <ellipse cx="18.0721452" cy="41.4682521" rx="1" ry="1"></ellipse>
                            <ellipse cx="7.83020046" cy="11.5479783" rx="1" ry="1"></ellipse>
                            <ellipse cx="4.08827834" cy="6.20064971" rx="1" ry="1"></ellipse>
                            <ellipse cx="21.4358378" cy="10.6428726" rx="1" ry="1"></ellipse>
                            <ellipse cx="9.42811382" cy="11.3701093" rx="1" ry="1"></ellipse>
                            <ellipse cx="17.7661618" cy="16.4314966" rx="1" ry="1"></ellipse>
                            <ellipse cx="25.0438922" cy="17.1317152" rx="1" ry="1"></ellipse>
                            <ellipse cx="15.0038115" cy="3.90186127" rx="1" ry="1"></ellipse>
                            <ellipse cx="4.80861429" cy="7.40070283" rx="1" ry="1"></ellipse>
                            <ellipse cx="2.31612442" cy="14.1709838" rx="1" ry="1"></ellipse>
                            <ellipse cx="14.9358152" cy="15.9654347" rx="1" ry="1"></ellipse>
                            <ellipse cx="2.37987097" cy="16.9763612" rx="1" ry="1"></ellipse>
                            <ellipse cx="1.05181797" cy="8.23601185" rx="1" ry="1"></ellipse>
                            <ellipse cx="20.0780364" cy="10.0394688" rx="1" ry="1"></ellipse>
                            <ellipse cx="13.9307447" cy="7.18906119" rx="1" ry="1"></ellipse>
                            <ellipse cx="12.5516945" cy="20.7341261" rx="1" ry="1"></ellipse>
                            <ellipse cx="13.2741553" cy="12.9776852" rx="1" ry="1"></ellipse>
                            <ellipse cx="15.2417986" cy="30.8073675" rx="1" ry="1"></ellipse>
                            <ellipse cx="17.7704115" cy="14.7721361" rx="1" ry="1"></ellipse>
                            <ellipse cx="23.0486253" cy="14.4726857" rx="1" ry="1"></ellipse>
                            <ellipse cx="22.999753" cy="30.836637" rx="1" ry="1"></ellipse>
                            <ellipse cx="18.7563581" cy="26.1647604" rx="1" ry="1"></ellipse>
                            <ellipse cx="3.36156774" cy="13.083506" rx="1" ry="1"></ellipse>
                            <ellipse cx="17.356059" cy="6.57214833" rx="1" ry="1"></ellipse>
                            <ellipse cx="13.2656558" cy="4.54804372" rx="1" ry="1"></ellipse>
                            <ellipse cx="26.6163069" cy="17.1249607" rx="1" ry="1"></ellipse>
                            <ellipse cx="25.2330069" cy="19.7479661" rx="1" ry="1"></ellipse>
                            <ellipse cx="16.0195065" cy="29.3619001" rx="1" ry="1"></ellipse>
                            <ellipse cx="21.2318488" cy="27.7610788" rx="1" ry="1"></ellipse>
                            <ellipse cx="26.1785806" cy="14.4006375" rx="1" ry="1"></ellipse>
                            <ellipse cx="27.2558972" cy="21.1731699" rx="1" ry="1"></ellipse>
                            <ellipse cx="6.86975253" cy="16.2964062" rx="1" ry="1"></ellipse>
                            <ellipse cx="17.2583143" cy="34.0450342" rx="1" ry="1"></ellipse>
                            <ellipse cx="1.86989862" cy="12.444078" rx="1" ry="1"></ellipse>
                            <ellipse cx="25.2478811" cy="30.3615691" rx="1" ry="1"></ellipse>
                            <ellipse cx="7.56246498" cy="3.10933088" rx="1" ry="1"></ellipse>
                            <ellipse cx="14.1219843" cy="33.0723833" rx="1" ry="1"></ellipse>
                            <ellipse cx="11.4850023" cy="9.27395648" rx="1" ry="1"></ellipse>
                            <ellipse cx="21.8034429" cy="30.3232935" rx="1" ry="1"></ellipse>
                            <ellipse cx="22.2517935" cy="6.06781081" rx="1" ry="1"></ellipse>
                            <ellipse cx="4.57912673" cy="10.8410052" rx="1" ry="1"></ellipse>
                            <ellipse cx="14.478965" cy="5.54996425" rx="1" ry="1"></ellipse>
                            <ellipse cx="8.37629585" cy="15.9834467" rx="1" ry="1"></ellipse>
                            <ellipse cx="19.1983341" cy="28.7720053" rx="1" ry="1"></ellipse>
                            <ellipse cx="21.2807212" cy="33.4934151" rx="1" ry="1"></ellipse>
                            <ellipse cx="5.42270599" cy="3.2826969" rx="1" ry="1"></ellipse>
                            <ellipse cx="17.2795631" cy="26.4281867" rx="1" ry="1"></ellipse>
                            <ellipse cx="21.4698359" cy="14.6910818" rx="1" ry="1"></ellipse>
                            <ellipse cx="19.3279521" cy="31.5526162" rx="1" ry="1"></ellipse>
                            <ellipse cx="17.6577926" cy="22.3507079" rx="1" ry="1"></ellipse>
                            <ellipse cx="23.4778521" cy="26.1625089" rx="1" ry="1"></ellipse>
                            <ellipse cx="19.200459" cy="22.1142997" rx="1" ry="1"></ellipse>
                            <ellipse cx="18.3398806" cy="32.6220819" rx="1" ry="1"></ellipse>
                            <ellipse cx="21.7481959" cy="26.185024" rx="1" ry="1"></ellipse>
                            <ellipse cx="18.2612599" cy="37.1678741" rx="1" ry="1"></ellipse>
                            <ellipse cx="28.1887217" cy="35.7314128" rx="1" ry="1"></ellipse>
                            <ellipse cx="11.4658783" cy="0.576385739" rx="1" ry="1"></ellipse>
                            <ellipse cx="18.3186318" cy="19.3652099" rx="1" ry="1"></ellipse>
                            <ellipse cx="11.6549931" cy="15.4385821" rx="1" ry="1"></ellipse>
                            <ellipse cx="19.7019318" cy="18.8698784" rx="1" ry="1"></ellipse>
                            <ellipse cx="28.0739779" cy="19.880805" rx="1" ry="1"></ellipse>
                            <ellipse cx="18.8371037" cy="7.11701297" rx="1" ry="1"></ellipse>
                            <ellipse cx="19.2493313" cy="4.19005414" rx="1" ry="1"></ellipse>
                            <ellipse cx="15.1121806" cy="25.5118235" rx="1" ry="1"></ellipse>
                            <ellipse cx="5.82005945" cy="8.49718664" rx="1" ry="1"></ellipse>
                            <ellipse cx="6.09416959" cy="11.3948759" rx="1" ry="1"></ellipse>
                            <ellipse cx="3.1023318" cy="7.55155378" rx="1" ry="1"></ellipse>
                            <ellipse cx="12.2945834" cy="17.0799305" rx="1" ry="1"></ellipse>
                            <ellipse cx="18.8519779" cy="33.9302074" rx="1" ry="1"></ellipse>
                            <ellipse cx="20.6113825" cy="31.0460272" rx="1" ry="1"></ellipse>
                            <ellipse cx="14.6022083" cy="34.630426" rx="1" ry="1"></ellipse>
                            <ellipse cx="20.2841502" cy="23.2940893" rx="1" ry="1"></ellipse>
                            <ellipse cx="18.0147733" cy="30.9942425" rx="1" ry="1"></ellipse>
                            <ellipse cx="16.378612" cy="11.8496803" rx="1" ry="1"></ellipse>
                            <ellipse cx="23.2313654" cy="23.1522444" rx="1" ry="1"></ellipse>
                            <ellipse cx="12.2520857" cy="7.57857187" rx="1" ry="1"></ellipse>
                            <ellipse cx="15.9451355" cy="18.9239146" rx="1" ry="1"></ellipse>
                            <ellipse cx="0.441976037" cy="12.7975646" rx="1" ry="1"></ellipse>
                            <ellipse cx="19.421447" cy="36.0939054" rx="1" ry="1"></ellipse>
                            <ellipse cx="1.90814654" cy="10.6653877" rx="1" ry="1"></ellipse>
                            <ellipse cx="8.78639862" cy="2.6500235" rx="1" ry="1"></ellipse>
                            <ellipse cx="18.0551461" cy="8.4183839" rx="1" ry="1"></ellipse>
                            <ellipse cx="10.5266793" cy="14.1957503" rx="1" ry="1"></ellipse>
                            <ellipse cx="20.418018" cy="13.3334232" rx="1" ry="1"></ellipse>
                            <ellipse cx="21.8161922" cy="12.1311186" rx="1" ry="1"></ellipse>
                            <ellipse cx="22.3856613" cy="9.65896414" rx="1" ry="1"></ellipse>
                            <ellipse cx="5.74993825" cy="13.8940484" rx="1" ry="1"></ellipse>
                            <ellipse cx="9.44723779" cy="17.3230933" rx="1" ry="1"></ellipse>
                            <ellipse cx="21.7588203" cy="32.0456962" rx="1" ry="1"></ellipse>
                            <ellipse cx="21.8395659" cy="21.0898641" rx="1" ry="1"></ellipse>
                            <ellipse cx="21.7970682" cy="23.7556482" rx="1" ry="1"></ellipse>
                            <ellipse cx="25.0800152" cy="28.7337297" rx="1" ry="1"></ellipse>
                            <ellipse cx="14.0986106" cy="22.9856329" rx="1" ry="1"></ellipse>
                            <ellipse cx="22.6427724" cy="24.8836531" rx="1" ry="1"></ellipse>
                            <ellipse cx="25.9214696" cy="18.401565" rx="1" ry="1"></ellipse>
                            <ellipse cx="20.5561355" cy="21.6639984" rx="1" ry="1"></ellipse>
                            <ellipse cx="16.931082" cy="32.3901767" rx="1" ry="1"></ellipse>
                            <ellipse cx="20.0737866" cy="32.7684299" rx="1" ry="1"></ellipse>
                            <ellipse cx="16.1045018" cy="5.47566452" rx="1" ry="1"></ellipse>
                            <ellipse cx="7.35635115" cy="8.64128307" rx="1" ry="1"></ellipse>
                            <ellipse cx="18.5034968" cy="9.79180304" rx="1" ry="1"></ellipse>
                            <ellipse cx="25.3180023" cy="23.8367024" rx="1" ry="1"></ellipse>
                            <ellipse cx="20.0822862" cy="39.8921974" rx="1" ry="1"></ellipse>
                            <ellipse cx="4.85961152" cy="12.5003657" rx="1" ry="1"></ellipse>
                            <ellipse cx="28.146224" cy="16.7061804" rx="1" ry="1"></ellipse>
                            <ellipse cx="14.9060668" cy="12.928152" rx="1" ry="1"></ellipse>
                            <ellipse cx="20.8536194" cy="19.9843743" rx="1" ry="1"></ellipse>
                            <ellipse cx="22.2390442" cy="4.41520482" rx="1" ry="1"></ellipse>
                            <ellipse cx="1.55966544" cy="15.6592297" rx="1" ry="1"></ellipse>
                            <ellipse cx="20.8323705" cy="36.3190561" rx="1" ry="1"></ellipse>
                            <ellipse cx="4.25614424" cy="14.238529" rx="1" ry="1"></ellipse>
                            <ellipse cx="18.2506355" cy="35.305878" rx="1" ry="1"></ellipse>
                            <ellipse cx="19.0070945" cy="38.793462" rx="1" ry="1"></ellipse>
                            <ellipse cx="7.43922166" cy="1.37792216" rx="1" ry="1"></ellipse>
                            <ellipse cx="9.50673456" cy="12.9033854" rx="1" ry="1"></ellipse>
                            <ellipse cx="21.0108608" cy="38.9510675" rx="1" ry="1"></ellipse>
                            <ellipse cx="21.9925576" cy="13.3964654" rx="1" ry="1"></ellipse>
                            <ellipse cx="20.7218765" cy="29.2403187" rx="1" ry="1"></ellipse>
                            <ellipse cx="22.4154097" cy="19.8920625" rx="1" ry="1"></ellipse>
                            <ellipse cx="3.61442903" cy="4.9060333" rx="1" ry="1"></ellipse>
                            <ellipse cx="5.38658295" cy="15.4048095" rx="1" ry="1"></ellipse>
                            <ellipse cx="29.6527673" cy="30.5394381" rx="1" ry="1"></ellipse>
                            <ellipse cx="8.87776866" cy="14.4524221" rx="1" ry="1"></ellipse>
                            <ellipse cx="5.63944424" cy="5.86967821" rx="1" ry="1"></ellipse>
                            <ellipse cx="24.8165295" cy="25.5658596" rx="1" ry="1"></ellipse>
                            <ellipse cx="23.7668364" cy="28.0897988" rx="1" ry="1"></ellipse>
                            <ellipse cx="13.9668677" cy="10.1385351" rx="1" ry="1"></ellipse>
                            <ellipse cx="25.3668747" cy="15.7470385" rx="1" ry="1"></ellipse>
                            <ellipse cx="19.7890521" cy="27.5269221" rx="1" ry="1"></ellipse>
                            <ellipse cx="13.1147889" cy="18.2867382" rx="1" ry="1"></ellipse>
                            <ellipse cx="15.5562816" cy="6.87385024" rx="1" ry="1"></ellipse>
                            <ellipse cx="19.9972908" cy="14.8149147" rx="1" ry="1"></ellipse>
                            <ellipse cx="28.9239318" cy="18.7528001" rx="1" ry="1"></ellipse>
                            <ellipse cx="16.4296092" cy="15.3845459" rx="1" ry="1"></ellipse>
                            <ellipse cx="22.7341424" cy="18.5276494" rx="1" ry="1"></ellipse>
                            <ellipse cx="15.1015562" cy="14.5199673" rx="1" ry="1"></ellipse>
                            <ellipse cx="13.7055069" cy="11.6290326" rx="1" ry="1"></ellipse>
                            <ellipse cx="18.6798622" cy="17.6653223" rx="1" ry="1"></ellipse>
                            <ellipse cx="13.6991323" cy="14.3263377" rx="1" ry="1"></ellipse>
                            <ellipse cx="15.8388912" cy="26.8807396" rx="1" ry="1"></ellipse>
                            <ellipse cx="3.29357143" cy="10.0056962" rx="1" ry="1"></ellipse>
                            <ellipse cx="23.8390825" cy="10.1993258" rx="1" ry="1"></ellipse>
                            <ellipse cx="18.0636456" cy="20.9390132" rx="1" ry="1"></ellipse>
                            <ellipse cx="26.7459249" cy="15.7605476" rx="1" ry="1"></ellipse>
                            <ellipse cx="12.1840894" cy="12.0027827" rx="1" ry="1"></ellipse>
                            <ellipse cx="8.69290369" cy="5.75259986" rx="1" ry="1"></ellipse>
                            <ellipse cx="9.95083548" cy="15.6614813" rx="1" ry="1"></ellipse>
                            <ellipse cx="17.8299083" cy="5.05463275" rx="1" ry="1"></ellipse>
                            <ellipse cx="23.1952424" cy="32.3564041" rx="1" ry="1"></ellipse>
                            <ellipse cx="13.6438853" cy="19.8537869" rx="1" ry="1"></ellipse>
                            <ellipse cx="19.330077" cy="30.0958913" rx="1" ry="1"></ellipse>
                            <ellipse cx="19.0007198" cy="12.4936112" rx="1" ry="1"></ellipse>
                            <ellipse cx="24.548794" cy="14.4006375" rx="1" ry="1"></ellipse>
                            <ellipse cx="12.4921977" cy="22.2764082" rx="1" ry="1"></ellipse>
                        </g>
                    </g>
                </g>
            </g>
        </g>
    </g>
</svg>