<svg width="1262" height="1078" viewBox="0 0 1262 1078" fill="none" xmlns="http://www.w3.org/2000/svg">
<path opacity="0.15" d="M374.93 636.46C374.93 636.46 242 616.18 260.05 514.82C278.1 413.46 329.88 424.72 332.13 348.14C334.38 271.56 424.48 244.53 474.04 287.32C523.6 330.11 485.3 370.66 521.34 487.79C575.14 662.65 374.93 636.46 374.93 636.46Z" fill="#D2CAFC"/>
<path opacity="0.15" d="M676.56 446.24C676.56 446.24 706.92 258.85 849.81 285.61C992.7 312.37 976.13 385.39 1084.24 389.61C1192.35 393.83 1229.35 521.37 1168.24 590.78C1107.13 660.19 1050.41 605.6 884.55 654.97C637 728.62 676.56 446.24 676.56 446.24Z" fill="#D2CAFC"/>
<path d="M1050.92 845.29H1055.39L1025.34 709.39L1011.75 709.85L1026.96 762.07L993.93 763.11L992.05 763.16L988.36 763.28L989.29 717.7L989.45 709.91L975.89 709.39L977.72 763.61L940.08 764.79L954.37 717.7L956.22 711.61L940.94 711.65L939.57 717.7L910.33 845.25H915.58L937.04 774.82L978.05 773.25L980.45 844.94H986.71L988.16 772.86L988.36 772.85L988.76 772.83L1029.64 771.27L1050.92 845.29Z" fill="#9085CB"/>
<path d="M908.35 704.11C921.12 697.85 972.72 701.23 972.72 701.23C972.72 701.23 959.22 516.79 978.06 515.34C996.9 513.89 1044.88 504.54 1046.2 531.23C1047.61 559.61 1043.46 712.17 1032.56 712.17C1007.71 712.17 932.01 717.57 909.15 712.17C903.26 710.8 908.35 704.11 908.35 704.11Z" fill="#9085CB"/>
<path opacity="0.7" d="M892.73 625.86H551.48V635.86H892.73V625.86Z" fill="#D2CAFC"/>
<path opacity="0.7" d="M892.73 635.86H551.48V843.27H892.73V635.86Z" fill="url(#paint0_linear)"/>
<path opacity="0.4" d="M1261.01 844.62H0.75V855.17H1261.01V844.62Z" fill="#D2CAFC"/>
<path opacity="0.4" d="M1261.01 854.7H0.75V1073.44H1261.01V854.7Z" fill="url(#paint1_linear)"/>
<path fill-rule="evenodd" clip-rule="evenodd" d="M192.26 315.38C185.332 315.379 178.513 317.1 172.416 320.389C166.319 323.678 161.134 328.43 157.33 334.22C153.313 331.951 148.772 330.774 144.159 330.808C139.545 330.841 135.022 332.083 131.038 334.411C127.055 336.738 123.751 340.068 121.456 344.071C119.161 348.073 117.956 352.607 117.96 357.22H234.08C234.083 351.726 233.003 346.286 230.902 341.21C228.802 336.134 225.722 331.521 221.838 327.636C217.955 323.75 213.344 320.668 208.268 318.565C203.193 316.462 197.754 315.38 192.26 315.38Z" fill="#D2CAFC" fill-opacity="0.5"/>
<path fill-rule="evenodd" clip-rule="evenodd" d="M1027.41 222.43C1037.53 222.428 1047.48 224.943 1056.39 229.747C1065.29 234.551 1072.86 241.493 1078.41 249.95C1084.27 246.633 1090.9 244.912 1097.64 244.957C1104.38 245.003 1110.98 246.814 1116.8 250.209C1122.62 253.605 1127.45 258.467 1130.8 264.31C1134.15 270.153 1135.91 276.773 1135.91 283.51H966.31C966.31 275.487 967.89 267.543 970.961 260.131C974.032 252.719 978.533 245.985 984.207 240.313C989.881 234.64 996.617 230.142 1004.03 227.073C1011.44 224.005 1019.39 222.427 1027.41 222.43Z" fill="#D2CAFC" fill-opacity="0.5"/>
<path fill-rule="evenodd" clip-rule="evenodd" d="M400 712.74C400.89 713.67 402 773.84 409.52 829.17L424.04 834.65C426.49 770.83 421.28 707.46 416.77 703.15C410 696.67 398.64 711.35 400 712.74Z" fill="#FCDEAB"/>
<path fill-rule="evenodd" clip-rule="evenodd" d="M349.75 716.139C349.02 717.139 355.17 774.279 354.69 827.609L341.59 834.549C331.59 774.359 328.95 713.689 332.71 709.059C338.34 702.109 350.85 714.659 349.75 716.139Z" fill="#FCDEAB"/>
<path fill-rule="evenodd" clip-rule="evenodd" d="M445.51 844.11L404.59 843.51L404.89 823.05L445.51 844.11Z" fill="#1F0744"/>
<path fill-rule="evenodd" clip-rule="evenodd" d="M318.85 846.75L359.57 842.75L357.57 822.39L318.85 846.75Z" fill="#1F0744"/>
<path d="M347.4 587C347.4 587 370 591.89 426.04 585.53L426.88 812.24L405.08 812.89L394 705.21L381 629.39C381 629.39 365.73 673.59 359.74 685.58C354.97 695.12 353.45 695.77 355.01 735.94C357.01 786.29 358.22 813.88 358.22 813.88L336.42 814.54C336.42 814.54 313.42 708.59 319.63 688.61C325.84 668.63 347.4 587 347.4 587Z" fill="#14B0BC"/>
<g opacity="0.3">
<path opacity="0.3" d="M402.42 591.6C406.821 598.4 412.959 603.9 420.2 607.53C420.567 607.683 420.967 607.74 421.362 607.696C421.758 607.653 422.135 607.509 422.46 607.28C422.91 606.98 423.39 606.22 422.69 605.87C415.617 602.322 409.625 596.942 405.34 590.29C404.68 589.29 401.62 590.37 402.42 591.6Z" fill="#1F0744"/>
</g>
<g opacity="0.3">
<path opacity="0.3" d="M344.62 610.29C354.291 606.301 362.847 600.02 369.55 591.99C370.04 591.4 369.14 591.14 368.71 591.12C368.321 591.103 367.933 591.171 367.573 591.318C367.212 591.464 366.887 591.687 366.62 591.969C360.377 599.466 352.41 605.338 343.4 609.08C342.98 609.25 342.11 609.75 342.54 610.29C342.97 610.83 344.17 610.48 344.62 610.29Z" fill="#1F0744"/>
</g>
<g opacity="0.3">
<path opacity="0.3" d="M382.68 630.14L391.01 628.38C391.426 628.307 391.83 628.176 392.21 627.99C392.41 627.88 392.77 627.67 392.84 627.42C393.03 626.81 391.84 626.89 391.53 626.95L383.2 628.71C382.779 628.779 382.371 628.91 381.99 629.1C381.79 629.21 381.44 629.42 381.36 629.67C381.18 630.28 382.41 630.2 382.68 630.14Z" fill="#1F0744"/>
</g>
<g opacity="0.3">
<path opacity="0.3" d="M367 627.42C370.912 627.706 374.75 628.635 378.36 630.17C378.734 630.284 379.127 630.315 379.514 630.262C379.901 630.208 380.272 630.071 380.6 629.86C380.99 629.62 381.6 628.96 380.89 628.67C376.87 626.982 372.6 625.969 368.25 625.67C367.859 625.642 367.466 625.705 367.102 625.852C366.738 625.999 366.412 626.228 366.15 626.52C365.72 627.16 366.53 627.37 367 627.41V627.42Z" fill="#1F0744"/>
</g>
<g opacity="0.3">
<path opacity="0.3" d="M408 735.68C407.61 735.68 408.22 735.68 408.33 735.68L408.96 735.77C409.4 735.84 409.83 735.94 410.26 736.04H410.39L410.69 736.1L411.69 736.33C412.23 736.44 412.77 736.55 413.31 736.64C416.148 737.089 419.05 736.891 421.8 736.06C422.42 735.87 423.3 735.32 423.1 734.54C422.9 733.76 421.83 733.7 421.22 733.88C418.849 734.592 416.34 734.716 413.91 734.24C412.075 733.759 410.201 733.441 408.31 733.29C407.62 733.29 406.64 733.83 406.56 734.58C406.48 735.33 407.41 735.58 408.03 735.58L408 735.68Z" fill="#1F0744"/>
</g>
<path opacity="0.3" d="M356 693C356.667 691.146 357.334 689.29 358 687.43C358.372 686.64 358.842 685.901 359.4 685.23C359.592 685.051 359.713 684.808 359.738 684.546C359.764 684.285 359.694 684.023 359.541 683.81C359.388 683.596 359.162 683.446 358.906 683.387C358.65 683.328 358.381 683.365 358.15 683.49C357.29 683.49 356.15 683.91 355.97 684.49C354.28 689.41 352.58 694.33 350.56 699.13C349.415 701.931 348.1 704.66 346.62 707.3C345.57 709.13 344.35 711.3 342.62 712.56C340.89 713.82 343.62 714.26 344.62 713.56C348.33 710.83 350.56 706.2 352.42 701.93C352.31 703.34 352.23 704.86 352.19 706.48C351.78 723.57 353.81 764.86 353.83 765.28L356.01 811.68L338.91 811.76C338.638 811.786 338.385 811.912 338.201 812.115C338.017 812.317 337.915 812.581 337.915 812.855C337.915 813.128 338.017 813.392 338.201 813.595C338.385 813.797 338.638 813.924 338.91 813.95L358.29 813.86L356 765.19C356 764.78 354 723.56 354.36 706.55C354.397 701.986 354.947 697.441 356 693Z" fill="#1F0744"/>
<g opacity="0.3">
<path opacity="0.3" d="M405.19 812.93L397.07 731.48C397.056 731.337 397.069 731.193 397.111 731.056C397.152 730.919 397.22 730.791 397.31 730.68C397.401 730.569 397.512 730.477 397.638 730.41C397.764 730.342 397.903 730.299 398.045 730.285C398.188 730.27 398.332 730.284 398.469 730.325C398.606 730.367 398.734 730.434 398.845 730.525C398.956 730.615 399.048 730.727 399.115 730.853C399.183 730.979 399.226 731.117 399.24 731.26L407.17 810.7L424 810.34C424.272 810.366 424.525 810.493 424.709 810.695C424.893 810.897 424.995 811.161 424.995 811.435C424.995 811.708 424.893 811.972 424.709 812.175C424.525 812.377 424.272 812.504 424 812.53L405.19 812.93Z" fill="#1F0744"/>
</g>
<path d="M394.29 383.74C385.65 382.33 376.97 391.93 373.03 406.51C372.308 406.373 371.57 406.346 370.84 406.43C368.65 406.43 367.73 410.48 367.73 415.29C367.73 419.4 369.03 422.83 370.73 423.75C370.73 425.05 370.85 426.34 370.98 427.58L369.88 439.67C369.809 440.626 369.554 441.56 369.13 442.42C368.488 443.606 368.145 444.931 368.13 446.28C368.13 451.85 376.25 458.57 383.22 458.57C385.41 458.664 387.604 458.577 389.78 458.31C390.861 458.102 391.873 457.627 392.723 456.928C393.574 456.23 394.236 455.33 394.65 454.31L395.16 453.12C395.298 452.795 395.412 452.461 395.5 452.12C395.846 450.538 395.974 448.916 395.88 447.3V443.71C401.12 438.51 405.38 429.57 407.03 418.99C409.83 401.14 404.12 385.35 394.29 383.74Z" fill="#FCDEAB"/>
<path d="M420.55 390.64C417.31 390.03 416.13 390.32 415.02 391.08C415.02 388.17 414.35 387.55 413.34 387.14C412.589 386.85 411.922 386.379 411.399 385.768C410.875 385.157 410.511 384.426 410.34 383.64C409.86 381.42 408.23 381.04 407.74 379.47C405.3 371.62 401.26 368.95 391.47 368.95C383.92 368.95 376.24 373.81 373.68 378.39C366.15 378.87 359.91 386.75 359.91 398.13C359.91 409.81 369.36 421.42 369.28 422.29C369.28 422.29 364.74 403.57 373.52 407.07C373.786 407.216 373.991 407.453 374.097 407.737C374.204 408.022 374.205 408.335 374.1 408.62C374.1 408.62 368.65 432.17 378.27 442.49C379.178 444.11 380.504 445.457 382.11 446.391C383.716 447.325 385.543 447.812 387.4 447.8C392.97 447.8 396.19 444.17 399.23 439.67C401.07 436.85 402.59 433.99 402.59 431.86C402.59 427.99 396.66 425.86 390.49 425.86C388.548 425.817 386.619 426.181 384.826 426.928C383.033 427.676 381.416 428.79 380.08 430.2C379.768 430.589 379.397 430.926 378.98 431.2C378.98 431.2 376.14 432.04 375.81 428.48C375.28 422.71 376.95 408.22 378.81 402.38C379.022 401.736 379.446 401.183 380.012 400.81C380.579 400.438 381.255 400.269 381.93 400.33C383.67 400.56 385.82 402.12 388.24 405.77C391.96 410.91 397.17 417.99 404.81 417.99C404.81 417.99 413.03 418.8 414.66 412.35C415.02 410.95 415.29 407.95 415.31 407.9C415.429 407.526 415.626 407.181 415.89 406.89C416.153 406.6 416.476 406.369 416.837 406.214C417.197 406.06 417.587 405.984 417.979 405.994C418.372 406.004 418.757 406.098 419.11 406.27C422.62 407.45 427.24 404.17 427.24 400.27C427.24 396.37 425.1 391.51 420.55 390.64Z" fill="#1F0744"/>
<path d="M370.16 441.76C370.16 441.76 343.16 449.84 331.55 454.99C325.69 457.59 314.76 477.68 319.64 513.31C319.64 513.31 332.64 517.31 342.41 507.01L342.91 491.01C342.91 491.01 339.66 563.57 344.7 588.79C344.7 588.79 406.03 593.79 426.04 585.54L425.37 510.98L425.88 498.82L426.04 512.33C426.04 512.33 433.04 518.02 450.12 511.68C450.12 511.68 443.48 472.39 433.88 456.93C428.77 448.7 425.73 447.6 422.49 446.03C417.29 443.51 394.02 442.4 394.02 442.4C394.02 442.4 401.45 458.99 385.34 458.02C364.3 456.07 370.16 441.76 370.16 441.76Z" fill="#1F0744"/>
<path opacity="0.3" d="M345.66 503.53L347.66 488.82C347.66 488.82 349.66 498.89 349.2 499.6C349 500 345.66 503.53 345.66 503.53Z" fill="#F2EAFC"/>
<path opacity="0.3" d="M422.72 488.15L422.11 494.72L426.42 500.68L422.72 488.15Z" fill="#F2EAFC"/>
<g opacity="0.3">
<path opacity="0.3" d="M342.87 553C345.45 553.19 347.87 554.29 350.33 554.94C352.85 555.601 355.444 555.937 358.05 555.94C358.84 555.97 359.621 555.761 360.29 555.34C360.75 555.02 360.76 554.62 360.1 554.62C357.49 554.617 354.893 554.261 352.38 553.56C349.9 552.86 347.52 551.88 344.91 551.7C344.118 551.656 343.333 551.866 342.67 552.3C342.18 552.64 342.23 552.98 342.87 553.02V553Z" fill="#F2EAFC"/>
</g>
<g opacity="0.3">
<path opacity="0.3" d="M423.44 571.76C420.84 573.42 417.53 574.11 414.57 574.76C411.461 575.488 408.307 576.012 405.13 576.33C404.51 576.39 403.4 576.54 403.01 577.11C402.62 577.68 403.34 577.75 403.78 577.71C407.604 577.315 411.399 576.674 415.14 575.79C418.79 574.94 422.69 573.95 425.88 571.9C426.42 571.56 426.24 571.2 425.68 571.13C424.888 571.08 424.101 571.29 423.44 571.73V571.76Z" fill="#F2EAFC"/>
</g>
<g opacity="0.3">
<path opacity="0.3" d="M343.66 584.439C349.231 585.567 354.875 586.292 360.55 586.609C365.36 586.859 370.17 586.83 374.99 586.9C383.61 587.04 392.17 587.049 400.77 586.359C407.674 585.802 414.546 584.898 421.36 583.65C421.74 583.58 422.53 583.38 422.55 582.89C422.57 582.4 421.99 582.289 421.62 582.359C402.43 585.869 383.01 586.119 363.62 585.359C357.354 585.127 351.117 584.392 344.97 583.159C344.708 583.102 344.435 583.109 344.176 583.178C343.917 583.248 343.678 583.379 343.48 583.559C343.22 583.889 343.2 584.3 343.7 584.4L343.66 584.439Z" fill="#F2EAFC"/>
</g>
<path d="M369 477.83C369 477.83 372 466.34 376.8 464.27C380.6 462.65 390.69 461.27 393.94 461.27C397.19 461.27 401.32 462.02 397.94 463.54L392.29 466.13C389.54 467.4 387.14 469.2 387.29 472.22C387.506 474.677 387.47 477.15 387.18 479.6C386.53 482.85 385.12 485.13 377.09 485.67C374.3 485.86 355.4 537.51 354.96 538.38C353.64 541.03 344.23 557.58 332.19 549.77C320.15 541.96 320.5 513 320.5 513L324.73 513.33C329.681 513.314 334.542 512.004 338.83 509.53C341.54 507.85 343.67 506.12 344.26 505.14L369 477.83Z" fill="#FCDEAB"/>
<path d="M406 455.699L424.82 454.129C425.325 454.088 425.833 454.171 426.299 454.371C426.764 454.57 427.174 454.881 427.493 455.275C427.811 455.67 428.028 456.136 428.125 456.633C428.223 457.131 428.197 457.644 428.05 458.129L418 491.869C417.817 492.475 417.454 493.011 416.959 493.406C416.464 493.801 415.861 494.035 415.23 494.079L395.03 495.419C394.519 495.452 394.009 495.358 393.543 495.146C393.078 494.934 392.672 494.61 392.361 494.204C392.051 493.797 391.845 493.321 391.763 492.816C391.681 492.311 391.724 491.793 391.89 491.309L403.38 457.789C403.57 457.227 403.919 456.73 404.383 456.36C404.848 455.989 405.409 455.76 406 455.699Z" fill="#D2CAFC"/>
<path d="M448.69 517.9L448.07 509.63C443.913 511.316 439.493 512.26 435.01 512.42C428.65 504.19 417.82 489.96 417.75 488.2C417.64 485.8 422.41 482.45 423.17 477.46C423.663 473.212 423.88 468.936 423.82 464.66C423.82 464.66 413.82 474.1 407.66 469.87C401.5 465.64 398.77 466.18 398.77 466.18C398.77 466.18 395.84 465.96 397.77 471.38C399.7 476.8 399.5 477.78 400.59 483.75C401.68 489.72 405.25 491.23 405.25 491.23L421.74 544.05C421.74 544.05 426.4 551.43 430.52 551.54C434.64 551.65 440.83 551.32 443.87 548.07C446.91 544.82 448.2 539.5 448.75 533.07C448.995 528.015 448.975 522.952 448.69 517.9Z" fill="#FCDEAB"/>
<path d="M685.51 533.22L717.4 626.41H861.79L860.72 621.61L802.34 619.8L775.44 533.17L685.51 533.22Z" fill="#D2CAFC"/>
<path d="M751.35 583.09C751.97 586.56 750.07 589.8 747.11 590.33C744.15 590.86 741.24 588.47 740.62 584.99C740 581.51 741.91 578.28 744.87 577.76C747.83 577.24 750.73 579.62 751.35 583.09Z" fill="white"/>
<path fill-rule="evenodd" clip-rule="evenodd" d="M846.3 680C837.49 674.71 822.7 681.51 822.71 689.08C822.71 711.73 843.41 818.46 844.49 825.21C845.57 831.96 857.13 833.74 857.8 825.21C858.87 811.67 860.86 764.81 858.87 743.12C858.05 734.17 857.16 725.64 856.29 718.03C867.143 737.617 883.917 765.66 906.61 802.16L918.93 796.53C909.257 764.643 901.323 742.133 895.13 729C884.52 706.51 874.58 687.25 870.4 680.47C863.81 669.85 852.36 673.57 846.3 680Z" fill="#C08356"/>
<path fill-rule="evenodd" clip-rule="evenodd" d="M918.05 778.87L875.76 678.67C865.62 662.38 837.22 681.99 840.67 691.44C848.52 712.91 888.41 782.39 890.75 788.78L918.05 778.87Z" fill="#411CB5"/>
<path fill-rule="evenodd" clip-rule="evenodd" d="M929.91 810.69L918 786L880.56 834.51" fill="#1F0744"/>
<path fill-rule="evenodd" clip-rule="evenodd" d="M858.25 845.32L858.34 817.92L803.44 845.14" fill="#1F0744"/>
<path fill-rule="evenodd" clip-rule="evenodd" d="M819.75 685.05C819.75 714.65 833.75 783.68 833.81 790.2H864.05C860.58 729.05 858.05 697.47 859.34 696.81C861.27 695.81 938.5 704.52 961.65 704.52C995.05 704.52 1008.87 683.46 1009.99 644.45H943.83C930.36 645.89 860.1 660.06 834.01 664.93C822.83 667 819.75 676.9 819.75 685.05Z" fill="#411CB5"/>
<path opacity="0.3" d="M890.18 696.34C870.3 695.44 860.37 692.759 855.54 690.669C854.169 690.173 852.904 689.423 851.81 688.46C851.628 688.237 851.367 688.094 851.081 688.061C850.796 688.027 850.509 688.106 850.28 688.28C850.166 688.367 850.07 688.476 849.999 688.6C849.927 688.725 849.882 688.862 849.864 689.005C849.846 689.147 849.857 689.292 849.896 689.43C849.935 689.568 850.001 689.697 850.09 689.809C850.25 690.019 851.19 691.07 854.09 692.4C854.065 692.545 854.065 692.694 854.09 692.84C854.17 693.32 860.65 741.579 854.99 753.039C854.855 753.294 854.823 753.591 854.901 753.869C854.979 754.146 855.162 754.383 855.41 754.53C855.576 754.62 855.761 754.668 855.95 754.669C856.151 754.676 856.349 754.628 856.525 754.531C856.701 754.435 856.848 754.292 856.95 754.119C857.615 752.896 858.119 751.592 858.45 750.239L860.74 780.109C860.604 780.084 860.465 780.084 860.33 780.109C844.2 782.379 834.21 779.999 834.11 779.979C833.826 779.909 833.526 779.955 833.276 780.106C833.025 780.256 832.845 780.501 832.775 780.784C832.705 781.068 832.75 781.368 832.901 781.619C833.052 781.869 833.296 782.049 833.58 782.119C837.886 782.999 842.276 783.398 846.67 783.309C851.354 783.3 856.032 782.966 860.67 782.309C860.762 782.286 860.852 782.255 860.94 782.219L861.35 787.659C861.375 787.934 861.502 788.188 861.706 788.373C861.909 788.559 862.175 788.661 862.45 788.659H862.53C862.817 788.634 863.082 788.497 863.269 788.278C863.456 788.06 863.549 787.777 863.53 787.489C863.53 787.489 859.53 698.199 856.45 693.379C861.94 695.379 872 697.729 890.18 698.549H890.23C890.505 698.551 890.771 698.449 890.974 698.263C891.178 698.078 891.305 697.824 891.33 697.549C891.35 697.391 891.334 697.23 891.284 697.079C891.234 696.927 891.151 696.788 891.041 696.673C890.931 696.557 890.797 696.467 890.648 696.409C890.499 696.352 890.339 696.328 890.18 696.34Z" fill="#1F0744"/>
<g opacity="0.3">
<path opacity="0.3" d="M885.76 775.52C885.483 775.515 885.217 775.406 885.016 775.214C884.816 775.023 884.695 774.762 884.679 774.485C884.662 774.208 884.751 773.935 884.928 773.721C885.104 773.506 885.355 773.367 885.63 773.33C885.73 773.33 895.9 772.03 910.17 764.25C910.298 764.156 910.445 764.091 910.6 764.059C910.756 764.027 910.917 764.029 911.071 764.066C911.226 764.102 911.371 764.171 911.496 764.269C911.622 764.366 911.724 764.49 911.797 764.631C911.87 764.772 911.912 764.927 911.919 765.085C911.927 765.244 911.9 765.402 911.84 765.549C911.781 765.697 911.69 765.829 911.574 765.938C911.458 766.047 911.321 766.129 911.17 766.18C896.49 774.18 886.27 775.46 885.84 775.51L885.76 775.52Z" fill="#1F0744"/>
</g>
<path fill-rule="evenodd" clip-rule="evenodd" d="M864.92 622.06L832.22 620.17C820.087 625.503 813.937 627.17 813.77 625.17C813.52 622.26 817.46 621.7 817.61 619.71C817.76 617.72 812.52 615.39 807.45 613.4C802.38 611.41 804.87 609.92 806.58 609.4C814.058 608.894 821.571 609.409 828.91 610.93L866.26 604.07L864.92 622.06Z" fill="#C08356"/>
<path fill-rule="evenodd" clip-rule="evenodd" d="M904.28 591.16C904.28 591.16 890.2 589.84 885.98 582.43C881.38 574.36 877.25 567.04 877.25 567.04C877.25 567.04 871.95 557.8 870.5 558.28C870.19 558.378 869.905 558.542 869.666 558.761C869.426 558.981 869.237 559.25 869.112 559.55C868.987 559.85 868.93 560.174 868.943 560.498C868.957 560.823 869.041 561.141 869.19 561.43C869.73 562.68 871.8 570.13 871.8 570.13C870.314 570.193 868.852 570.532 867.49 571.13C865.66 571.93 861.22 580.25 860.92 581.22C860.638 582.069 860.479 582.955 860.45 583.85C860.612 584.418 860.919 584.935 861.34 585.35C861.709 585.718 862.167 585.983 862.67 586.12C862.723 586.141 862.77 586.172 862.811 586.211C862.851 586.251 862.884 586.298 862.906 586.35C862.928 586.402 862.94 586.458 862.941 586.514C862.942 586.571 862.931 586.627 862.91 586.68C862.75 587 862.25 587.49 860.85 588.14C858.33 589.33 855.38 590.51 855.38 590.51C855.38 590.51 853.68 591.25 854.56 592.7C854.56 592.7 855.25 593.91 860.18 592.7C863.793 591.651 867.55 591.181 871.31 591.31C875.55 591.39 878.03 592.14 879.79 593.31C881.55 594.48 895.36 602.42 895.36 602.42L904.28 591.16Z" fill="#C08356"/>
<path fill-rule="evenodd" clip-rule="evenodd" d="M983 543L955.53 546.78L955.66 513.23C948.86 518.71 942.14 519.32 938.6 518.91C929.72 517.91 924.36 489.18 929.29 475.91C934.22 462.64 967.58 452.56 972.67 476.82C974.43 485.24 971.91 493.32 967.48 500.23L983 543Z" fill="#C08356"/>
<path fill-rule="evenodd" clip-rule="evenodd" d="M963 491C962.877 490.097 962.577 489.228 962.118 488.441C961.659 487.655 961.049 486.967 960.324 486.416C959.599 485.865 958.772 485.463 957.891 485.232C957.01 485.001 956.092 484.946 955.19 485.07C954.427 485.22 953.706 485.534 953.075 485.989C952.445 486.445 951.922 487.032 951.54 487.71C950.843 485.66 950.334 483.552 950.02 481.41C949.72 479.343 949.686 477.245 949.92 475.17C945.548 475.525 941.15 475.384 936.81 474.75C930.74 475.26 928.21 471.66 927.37 465.55C926.5 459.23 928.01 454.09 934.37 453.23C940.73 452.37 946.46 455.32 947.37 461.63C948.57 461.45 949.8 461.29 951.05 461.16C956.78 460.468 962.582 460.643 968.26 461.68C969.084 461.818 969.891 462.039 970.67 462.34C971.757 462.672 972.774 463.201 973.67 463.9C976.74 466.072 979.218 468.977 980.88 472.35C987.26 467.91 989.62 459.17 1005.8 456.95C1029.59 453.68 1032.8 494.24 1015.8 496.58C1003.28 498.3 994.24 486.51 983.89 481.32C983.97 481.76 984.04 482.21 984.1 482.66C985.87 495.51 981.1 508.34 972.21 509.57C967.5 510.22 962.12 505.94 957.81 499.87C961.47 499.07 963.61 495.46 963 491Z" fill="#ED3B3F"/>
<path d="M838.16 607C838.16 607 898.37 600.2 901.16 598.61C903.95 597.02 914.16 570.46 917.16 563.98C920.16 557.5 930.46 541.78 940.53 537.79C948.38 534.68 950.67 533.85 950.67 533.85C950.67 533.85 956.43 540.15 956.58 541.74C957.14 547.65 953.77 557.59 950.38 567.36C942.78 589.36 915.47 629.58 915.47 629.58C915.47 629.58 877.18 632.96 839.17 622.26L838.16 607Z" fill="#14B0BC"/>
<path d="M953.18 533.16C953.18 533.16 959.56 545.73 979.27 529.59C979.27 529.59 1001.01 535.34 1004.99 544.75C1014.38 566.93 1015.49 604.2 1013.8 620.82C1012.11 637.44 1009.86 657.42 1009.86 657.42C999.182 657.063 988.5 658.007 978.05 660.23C961.43 663.9 946.24 653.48 924.27 647.23C928.214 632.764 931.409 618.105 933.84 603.31C938.35 576.83 927.65 552.06 927.65 552.06C927.65 552.06 933 536.07 953.18 533.16Z" fill="#14B0BC"/>
<path d="M891.61 587C891.61 587 917.36 590.55 935.8 595.48C944.5 597.81 951.57 600.48 953.55 603.14C955.77 606.14 962.02 570.37 962.02 570.37C962.02 570.37 967.9 541.09 979.69 536.58C988.88 533.06 999.16 540.82 999.16 540.82C999.16 540.82 1005.16 549.23 1004.77 563.62C1003.67 607.27 964.25 638.24 964.25 638.24C964.25 638.24 940.41 646.31 884.1 597.51L891.61 587Z" fill="#14B0BC"/>
<g opacity="0.3">
<path opacity="0.3" d="M962.42 641.07C953.04 641.07 929.72 636.43 888.68 600.87C888.576 600.785 888.491 600.681 888.428 600.562C888.365 600.444 888.327 600.314 888.315 600.181C888.304 600.047 888.319 599.913 888.361 599.786C888.402 599.658 888.469 599.54 888.556 599.439C888.644 599.338 888.751 599.256 888.872 599.197C888.992 599.138 889.123 599.103 889.256 599.096C889.39 599.089 889.524 599.108 889.65 599.154C889.776 599.199 889.892 599.269 889.99 599.36C941.22 643.75 964.16 637.11 966.22 636.58C968.81 634.48 1004.22 607.25 1005.22 567.28C1005.22 567.015 1005.33 566.76 1005.51 566.573C1005.7 566.385 1005.95 566.28 1006.22 566.28C1006.49 566.28 1006.74 566.385 1006.93 566.573C1007.11 566.76 1007.22 567.015 1007.22 567.28C1007.92 612.04 967.69 640.15 967.3 640.46L967.46 640.4L967.3 640.46C965.714 640.909 964.068 641.115 962.42 641.07Z" fill="#1F0744"/>
</g>
<path opacity="0.3" d="M941 571.64C941 571.64 939.39 592.26 935.07 598.08L939.5 599.08L941 571.64Z" fill="#1F0744"/>
<path d="M954.94 603.91C954.59 603.658 954.297 603.334 954.083 602.96C953.869 602.586 953.739 602.169 953.7 601.74C953.431 600.419 953.244 599.083 953.14 597.74C952.99 596.08 952.84 594.09 952.85 591.64C952.848 590.303 952.928 588.967 953.09 587.64C953.275 586.21 953.539 584.791 953.88 583.39C954.54 580.64 955.27 578.33 955.82 576.39C956.09 575.39 956.32 574.52 956.53 573.6C956.74 572.68 956.94 571.6 957.21 570.6C957.585 568.805 958.447 567.148 959.7 565.81C960.76 564.81 961.7 564.75 962.3 565.15C962.895 565.723 963.306 566.462 963.48 567.27C963.79 568.19 964.15 569.27 964.57 570.84C964.825 571.804 965.025 572.783 965.17 573.77C965.333 575.076 965.383 576.395 965.32 577.71C965.138 580.438 964.703 583.143 964.02 585.79C963.38 588.41 962.9 590.43 962.38 592.79C961.924 594.99 961.254 597.14 960.38 599.21C959.731 600.787 958.737 602.198 957.47 603.34C956.47 604.06 955.56 604.24 954.94 603.91Z" fill="#14B0BC"/>
<path opacity="0.3" d="M970.67 606.73C969.43 606.35 968.18 606 966.94 605.64C967.73 597.13 969.83 584.21 971.5 575.84C970.58 577.925 969.782 580.062 969.11 582.24C967.48 590.37 965.88 596.83 965.11 605.09C958.65 603.25 952.13 601.633 945.55 600.24C944.94 600.12 938.43 598.81 939.55 599.04C946.55 600.53 958.4 604.53 965.3 606.52H965.44C966.82 606.92 968.2 607.32 969.57 607.74C970.1 608 971.75 607.06 970.67 606.73Z" fill="#1F0744"/>
<g opacity="0.3">
<path opacity="0.3" d="M949.11 537.83C952.91 541.23 958.88 541.89 963.78 541.77C966.489 541.66 969.143 540.978 971.57 539.77C974.47 538.43 977.33 537.01 980.21 535.62C981.41 535.04 980.31 534.36 979.43 534.78L972.19 538.26C969.866 539.572 967.288 540.373 964.63 540.61C960.1 540.77 954.41 540.18 950.9 537.04C950.37 536.57 948.56 537.32 949.11 537.81V537.83Z" fill="#1F0744"/>
</g>
<g opacity="0.3">
<path opacity="0.3" d="M986.22 535.06C985.91 534.99 985.589 534.99 985.28 535.06C984.868 535.121 984.472 535.267 984.12 535.49C983.894 535.622 983.699 535.803 983.551 536.019C983.402 536.235 983.303 536.481 983.26 536.74C983.246 536.79 983.245 536.843 983.258 536.894C983.27 536.945 983.295 536.991 983.33 537.03C983.416 537.112 983.523 537.167 983.64 537.19C983.962 537.31 984.298 537.39 984.64 537.43C985.194 537.473 985.748 537.348 986.23 537.07C986.377 536.99 986.512 536.889 986.63 536.77C986.742 536.662 986.836 536.537 986.91 536.4C986.979 536.276 987.021 536.139 987.033 535.997C987.045 535.856 987.027 535.714 986.98 535.58C986.97 535.542 986.953 535.506 986.929 535.475C986.905 535.444 986.874 535.418 986.84 535.4C986.771 535.335 986.684 535.293 986.59 535.28C986.354 535.215 986.105 535.215 985.87 535.28C985.628 535.33 985.406 535.448 985.23 535.62L985.11 535.76C985.076 535.803 985.053 535.854 985.043 535.908C985.033 535.962 985.035 536.017 985.05 536.07C985.082 536.146 985.102 536.227 985.11 536.31V536.16C985.124 536.239 985.124 536.32 985.11 536.4L985.18 536.24C985.148 536.311 985.108 536.378 985.06 536.44L985.18 536.3L985.04 536.43L985.21 536.3L985.07 536.39L985.29 536.27H985.18L985.43 536.18H985.29H985.55H985.64H985.35H985.57C985.331 536.137 985.097 536.073 984.87 535.99L985.25 536.44C985.258 536.337 985.281 536.236 985.32 536.14L985.26 536.3C985.303 536.201 985.357 536.107 985.42 536.02L985.3 536.17C985.361 536.098 985.428 536.031 985.5 535.97L985.33 536.11L985.5 536L985.29 536.11L985.46 536.04L985.21 536.13H985.36H985.1H985.18H984.96H985.12C985.356 536.19 985.604 536.19 985.84 536.13C986.08 536.076 986.301 535.959 986.48 535.79C986.59 535.68 986.73 535.51 986.67 535.34C986.633 535.263 986.578 535.196 986.51 535.144C986.443 535.092 986.364 535.056 986.28 535.04L986.22 535.06Z" fill="#1F0744"/>
</g>
<g opacity="0.3">
<path opacity="0.3" d="M991.39 536.47C991.14 536.476 990.891 536.513 990.65 536.58C990.414 536.644 990.186 536.735 989.97 536.85C989.697 536.993 989.442 537.167 989.21 537.37C989.113 537.461 989.029 537.566 988.96 537.68C988.883 537.792 988.838 537.924 988.83 538.06C988.819 538.219 988.869 538.376 988.97 538.5C989.049 538.591 989.148 538.663 989.26 538.71C989.537 538.832 989.838 538.89 990.14 538.88C990.696 538.869 991.238 538.699 991.7 538.39C992.118 538.122 992.426 537.715 992.57 537.24C992.582 537.158 992.568 537.075 992.53 537.001C992.492 536.928 992.433 536.868 992.36 536.83C992.159 536.729 991.933 536.691 991.71 536.72C991.48 536.724 991.256 536.793 991.064 536.921C990.873 537.049 990.722 537.229 990.63 537.44V537.53L990.69 537.37C990.647 537.474 990.59 537.571 990.52 537.66L990.64 537.51C990.575 537.594 990.501 537.671 990.42 537.74L990.59 537.59C990.53 537.645 990.463 537.692 990.39 537.73L990.61 537.61L990.41 537.7L990.66 537.61L990.45 537.67H990.71H990.51H990.76C990.697 537.68 990.633 537.68 990.57 537.67H990.79H990.62L990.8 537.74L990.68 537.67L990.81 537.78L990.75 537.71L990.83 537.85C990.82 537.817 990.82 537.782 990.83 537.75V537.91C990.82 537.867 990.82 537.823 990.83 537.78L990.77 537.94C990.787 537.893 990.811 537.85 990.84 537.81L990.72 537.97L990.89 537.8L990.72 537.94L991.01 537.74L990.79 537.86L991.11 537.72L990.86 537.81L991.14 537.73L990.88 537.78C990.987 537.77 991.094 537.77 991.2 537.78C991.461 537.754 991.712 537.665 991.93 537.52C992.017 537.472 992.094 537.406 992.154 537.327C992.214 537.248 992.257 537.157 992.28 537.06C992.292 536.978 992.278 536.895 992.24 536.821C992.202 536.748 992.143 536.688 992.07 536.65C991.867 536.557 991.642 536.522 991.42 536.55L991.39 536.47Z" fill="#1F0744"/>
</g>
<g opacity="0.3">
<path opacity="0.3" d="M996.41 538.2C995.893 538.251 995.393 538.41 994.94 538.664C994.487 538.919 994.092 539.265 993.78 539.68C993.7 539.768 993.648 539.877 993.628 539.994C993.609 540.111 993.623 540.231 993.67 540.34C993.731 540.448 993.817 540.541 993.922 540.609C994.027 540.677 994.146 540.718 994.27 540.73C994.564 540.785 994.866 540.785 995.16 540.73C995.543 540.688 995.915 540.579 996.26 540.41C996.856 540.13 997.335 539.648 997.61 539.05C997.659 538.963 997.685 538.865 997.685 538.765C997.685 538.665 997.659 538.567 997.61 538.48C997.543 538.395 997.46 538.325 997.366 538.274C997.271 538.222 997.167 538.19 997.06 538.18C996.813 538.141 996.56 538.179 996.335 538.288C996.11 538.397 995.923 538.572 995.8 538.79L995.7 538.99L995.81 538.81C995.737 538.933 995.646 539.044 995.54 539.14L995.71 538.98C995.614 539.071 995.51 539.155 995.4 539.23L995.61 539.1C995.494 539.168 995.374 539.228 995.25 539.28L995.5 539.18C995.384 539.227 995.263 539.26 995.14 539.28L995.4 539.23C995.287 539.239 995.173 539.239 995.06 539.23H995.31H994.97L995.46 540.23C995.548 540.106 995.645 539.989 995.75 539.88L995.58 540.05C995.714 539.925 995.858 539.811 996.01 539.71L995.8 539.84C995.946 539.749 996.1 539.672 996.26 539.61L996.01 539.71C996.163 539.653 996.32 539.609 996.48 539.58L996.22 539.63H996.31C996.574 539.611 996.827 539.517 997.04 539.36C997.217 539.23 997.336 539.036 997.37 538.82C997.379 538.721 997.361 538.622 997.319 538.532C997.277 538.443 997.212 538.366 997.13 538.31C996.934 538.175 996.696 538.115 996.46 538.14L996.41 538.2Z" fill="#1F0744"/>
</g>
<path d="M957.08 503.97C963.779 503.97 969.21 497.747 969.21 490.07C969.21 482.393 963.779 476.17 957.08 476.17C950.381 476.17 944.95 482.393 944.95 490.07C944.95 497.747 950.381 503.97 957.08 503.97Z" fill="#D2CAFC"/>
<path d="M958.02 495.24C960.831 495.24 963.11 492.961 963.11 490.15C963.11 487.338 960.831 485.06 958.02 485.06C955.209 485.06 952.93 487.338 952.93 490.15C952.93 492.961 955.209 495.24 958.02 495.24Z" fill="#6950F6" stroke="#D2CAFC" stroke-miterlimit="10"/>
<path d="M948.3 460.51C948.3 460.51 958.81 456.57 958.06 483.7" stroke="#D2CAFC" stroke-width="3" stroke-miterlimit="10" stroke-linecap="round"/>
<path d="M958 489.67C957.868 489.66 957.735 489.677 957.61 489.719C957.484 489.761 957.368 489.828 957.268 489.916C957.169 490.003 957.088 490.11 957.03 490.229C956.972 490.348 956.938 490.477 956.93 490.61C956.93 490.77 955.73 507.25 944.67 509.35C933.39 511.5 928.97 508.83 928.94 508.81C928.809 508.267 928.509 507.781 928.083 507.421C927.657 507.062 927.127 506.847 926.57 506.81C925.852 506.951 925.206 507.338 924.741 507.903C924.277 508.469 924.023 509.178 924.023 509.91C924.023 510.641 924.277 511.35 924.741 511.916C925.206 512.481 925.852 512.868 926.57 513.01C927.125 512.971 927.654 512.757 928.078 512.397C928.503 512.037 928.801 511.551 928.93 511.01C931.394 511.881 933.998 512.284 936.61 512.2C939.454 512.175 942.29 511.883 945.08 511.33C950.32 510.33 954.38 506.42 956.84 500.02C957.966 497.041 958.68 493.922 958.96 490.75C958.971 490.615 958.955 490.48 958.912 490.352C958.869 490.223 958.801 490.105 958.711 490.005C958.621 489.904 958.512 489.822 958.39 489.764C958.268 489.707 958.135 489.675 958 489.67Z" fill="#6950F6"/>
<path d="M622.45 291.71H439.98C436.423 291.71 433.54 294.593 433.54 298.15V348.03C433.54 351.587 436.423 354.47 439.98 354.47H622.45C626.007 354.47 628.89 351.587 628.89 348.03V298.15C628.89 294.593 626.007 291.71 622.45 291.71Z" fill="#9F94D7"/>
<g opacity="0.8">
<path d="M614.15 302.42H479.26V309.16H614.15V302.42Z" fill="white" fill-opacity="0.5"/>
<path d="M614.15 313.93H479.26V320.67H614.15V313.93Z" fill="white" fill-opacity="0.5"/>
<path d="M581.77 325.41H479.26V332.55H581.77V325.41Z" fill="white" fill-opacity="0.5"/>
<path d="M458.02 332.03C466.194 332.03 472.82 325.404 472.82 317.23C472.82 309.056 466.194 302.43 458.02 302.43C449.846 302.43 443.22 309.056 443.22 317.23C443.22 325.404 449.846 332.03 458.02 332.03Z" fill="white" fill-opacity="0.5"/>
<path d="M458 318.32C458.989 318.32 459.956 318.027 460.778 317.477C461.6 316.928 462.241 316.147 462.619 315.233C462.998 314.32 463.097 313.314 462.904 312.344C462.711 311.374 462.235 310.484 461.536 309.784C460.836 309.085 459.945 308.609 458.975 308.416C458.006 308.223 457 308.322 456.087 308.7C455.173 309.079 454.392 309.72 453.843 310.542C453.293 311.364 453 312.331 453 313.32C453 314.646 453.527 315.918 454.464 316.855C455.402 317.793 456.674 318.32 458 318.32Z" fill="#8072CA"/>
<path d="M449.3 326.17H466.75C466.837 326.17 466.924 326.153 467.005 326.119C467.085 326.085 467.159 326.036 467.22 325.973C467.282 325.911 467.33 325.837 467.363 325.756C467.395 325.675 467.411 325.588 467.41 325.5C467.407 323.828 466.741 322.226 465.558 321.045C464.375 319.864 462.772 319.2 461.1 319.2H454.94C453.268 319.2 451.665 319.864 450.482 321.045C449.298 322.226 448.633 323.828 448.63 325.5C448.63 325.678 448.701 325.848 448.826 325.974C448.952 326.1 449.122 326.17 449.3 326.17Z" fill="#8072CA"/>
</g>
<path d="M902.319 343H684.681C680.439 343 677 346.721 677 351.312V415.688C677 420.279 680.439 424 684.681 424H902.319C906.561 424 910 420.279 910 415.688V351.312C910 346.721 906.561 343 902.319 343Z" fill="#9F94D7"/>
<g opacity="0.8">
<path d="M892.834 355.799H731.636V363.853H892.834V355.799Z" fill="white" fill-opacity="0.5"/>
<path d="M892.834 369.554H731.636V377.608H892.834V369.554Z" fill="white" fill-opacity="0.5"/>
<path d="M885 383H732V392H885V383Z" fill="white" fill-opacity="0.5"/>
<path d="M820 398H732V407H820V398Z" fill="white" fill-opacity="0.5"/>
<path d="M706.254 391.184C716.022 391.184 723.94 383.265 723.94 373.497C723.94 363.73 716.022 355.811 706.254 355.811C696.486 355.811 688.567 363.73 688.567 373.497C688.567 383.265 696.486 391.184 706.254 391.184Z" fill="white" fill-opacity="0.5"/>
<path d="M706.23 374.799C707.412 374.799 708.567 374.449 709.55 373.792C710.532 373.136 711.298 372.203 711.751 371.111C712.203 370.019 712.321 368.818 712.091 367.659C711.86 366.5 711.291 365.435 710.455 364.599C709.62 363.764 708.555 363.194 707.396 362.964C706.237 362.733 705.035 362.852 703.944 363.304C702.852 363.756 701.919 364.522 701.262 365.505C700.606 366.487 700.255 367.643 700.255 368.824C700.255 370.409 700.885 371.929 702.005 373.049C703.126 374.17 704.646 374.799 706.23 374.799Z" fill="#8072CA"/>
<path d="M695.833 384.18H716.687C716.791 384.18 716.895 384.16 716.991 384.119C717.088 384.079 717.175 384.02 717.249 383.945C717.322 383.871 717.38 383.782 717.419 383.685C717.458 383.588 717.477 383.484 717.475 383.38C717.472 381.382 716.676 379.467 715.263 378.055C713.849 376.644 711.933 375.851 709.935 375.851H702.573C700.575 375.851 698.659 376.644 697.246 378.055C695.832 379.467 695.036 381.382 695.033 383.38C695.033 383.592 695.117 383.796 695.267 383.946C695.417 384.096 695.621 384.18 695.833 384.18Z" fill="#8072CA"/>
</g>
<defs>
<linearGradient id="paint0_linear" x1="722.11" y1="635.86" x2="722.11" y2="843.27" gradientUnits="userSpaceOnUse">
<stop stop-color="#D2CAFC" stop-opacity="0.5"/>
<stop offset="1" stop-color="white" stop-opacity="0"/>
</linearGradient>
<linearGradient id="paint1_linear" x1="2.08054e+06" y1="187812" x2="2.08054e+06" y2="235659" gradientUnits="userSpaceOnUse">
<stop stop-color="#D2CAFC" stop-opacity="0.5"/>
<stop offset="1" stop-color="white" stop-opacity="0"/>
</linearGradient>
</defs>
</svg>
