<?xml version="1.0" encoding="iso-8859-1"?>
<!-- Generator: Adobe Illustrator 19.0.0, SVG Export Plug-In . SVG Version: 6.00 Build 0)  -->
<svg version="1.1" id="Layer_1" xmlns="http://www.w3.org/2000/svg" xmlns:xlink="http://www.w3.org/1999/xlink" x="0px" y="0px"
	 viewBox="0 0 512 512" style="enable-background:new 0 0 512 512;" xml:space="preserve">
<g transform="translate(1 1)">
	<path style="fill:#FFE100;" d="M472.6,502.467c18.773,0,34.133-15.36,34.133-34.133v-179.2c0-18.773-15.36-34.133-34.133-34.133
		h-23.893c17.92,0.853,32.427,15.36,32.427,34.133v179.2c0,18.773-15.36,34.133-34.133,34.133"/>
	<path style="fill:#FFA800;" d="M404.333,16.067h-20.48c16.213,0,29.013,15.36,29.013,34.133v196.267h25.6V50.2
		C438.467,31.427,423.107,16.067,404.333,16.067"/>
	<path style="fill:#FFE100;" d="M429.933,255v-8.533h-102.4V255h-25.6c-18.773,0-34.133,15.36-34.133,34.133v179.2
		c0,18.773,15.36,34.133,34.133,34.133h128c18.773,0,34.133-15.36,34.133-34.133v-179.2C464.067,270.36,448.707,255,429.933,255"/>
	<path style="fill:#FFA800;" d="M455.533,502.467c18.773,0,34.133-15.36,34.133-34.133v-179.2c0-18.773-15.36-34.133-34.133-34.133
		H431.64c17.92,0.853,32.427,15.36,32.427,34.133v179.2c0,18.773-15.36,34.133-34.133,34.133"/>
	<path style="fill:#FF8800;" d="M191,220.867v-8.533H88.6v8.533H71.533C52.76,220.867,37.4,236.227,37.4,255v213.333
		c0,18.773,15.36,34.133,34.133,34.133h162.133c18.773,0,34.133-15.36,34.133-34.133V255c0-18.773-15.36-34.133-34.133-34.133H191z"
		/>
	<path style="fill:#FFFFFF;" d="M37.4,468.333V255c0-18.773,15.36-34.133,34.133-34.133h-25.6C27.16,220.867,11.8,236.227,11.8,255
		v213.333c0,18.773,15.36,34.133,34.133,34.133h25.6C52.76,502.467,37.4,487.107,37.4,468.333"/>
	<path style="fill:#FFA800;" d="M358.253,16.067H293.4V7.533h-86.187v8.533H142.36c-15.36,0-28.16,15.36-28.16,34.133v162.133
		h86.187v8.533h35.84c16.213,0,29.013,15.36,29.013,34.133v34.133c0-18.773,12.8-34.133,29.013-34.133h21.333v-8.533h71.68V50.2
		C387.267,31.427,374.467,16.067,358.253,16.067"/>
	<path style="fill:#FFFFFF;" d="M143.213,16.067h-20.48C103.96,16.067,88.6,31.427,88.6,50.2v162.133h25.6V50.2
		C114.2,31.427,127,16.067,143.213,16.067"/>
	<path style="fill:#FF8800;" d="M378.733,16.067h-20.48c16.213,0,29.013,15.36,29.013,34.133v196.267h25.6V50.2
		C412.867,31.427,397.507,16.067,378.733,16.067"/>
	<path style="fill:#FFE100;" d="M263.533,91.16l-12.8-6.827l-38.4,32.427c-5.12,4.267-12.8,0.853-12.8-5.973V7.533h76.8v77.653
		C276.333,92.013,268.653,95.427,263.533,91.16"/>
	<path style="fill:#FFA800;" d="M276.333,7.533v77.653c0,6.827-7.68,10.24-12.8,5.973l-12.8-6.827l38.4,32.427
		c5.12,4.267,12.8,0.853,12.8-5.973V7.533H276.333z"/>
	<path style="fill:#FFE100;" d="M152.6,295.96l-12.8-6.827l-38.4,32.427c-5.12,4.267-12.8,0.853-12.8-5.973V212.333h76.8v77.653
		C165.4,296.813,157.72,300.227,152.6,295.96"/>
	<path style="fill:#FFA800;" d="M165.4,212.333v77.653c0,6.827-7.68,10.24-12.8,5.973l-12.8-6.827l38.4,32.427
		c5.12,4.267,12.8,0.853,12.8-5.973V212.333H165.4z"/>
	<path style="fill:#FFE100;" d="M391.533,330.093l-12.8-6.827l-38.4,32.427c-5.12,4.267-12.8,0.853-12.8-5.973V246.467h76.8v77.653
		C404.333,330.947,396.653,334.36,391.533,330.093"/>
	<path style="fill:#FFA800;" d="M404.333,246.467v77.653c0,6.827-7.68,10.24-12.8,5.973l-12.8-6.827l38.4,32.427
		c5.12,4.267,12.8,0.853,12.8-5.973V246.467H404.333z"/>
	<path d="M294.253,127c-3.413,0-7.68-1.707-10.24-3.413l0,0l-33.28-28.16l-33.28,27.307c-5.12,4.267-11.093,5.12-17.067,2.56
		c-5.973-2.56-9.387-8.533-9.387-14.507V7.533C191,2.413,194.413-1,199.533-1h102.4c5.12,0,8.533,3.413,8.533,8.533v103.253
		c0,5.973-3.413,11.947-9.387,14.507C298.52,126.147,296.813,127,294.253,127z M208.067,16.067v93.013l37.547-30.72
		c3.413-2.56,7.68-2.56,11.093,0l37.547,30.72V16.067H208.067z"/>
	<path d="M96.28,331.8c-2.56,0-4.267-0.853-6.827-1.707c-5.973-2.56-9.387-8.533-9.387-14.507V212.333
		c0-5.12,3.413-8.533,8.533-8.533H191c5.12,0,8.533,3.413,8.533,8.533v103.253c0,5.973-3.413,11.947-9.387,14.507
		c-5.973,2.56-11.947,1.707-17.067-2.56l0,0l-33.28-27.307l-33.28,27.307C103.96,330.093,99.693,331.8,96.28,331.8z M97.133,220.867
		v93.013l37.547-30.72c3.413-2.56,7.68-2.56,11.093,0l37.547,30.72v-93.013H97.133z"/>
	<path d="M422.253,365.933c-3.413,0-7.68-1.707-10.24-3.413l0,0l-33.28-28.16l-33.28,27.307c-5.12,4.267-11.093,5.12-17.067,2.56
		c-5.973-2.56-9.387-8.533-9.387-14.507V246.467c0-5.12,3.413-8.533,8.533-8.533h102.4c5.12,0,8.533,3.413,8.533,8.533V349.72
		c0,5.973-3.413,11.947-9.387,14.507C426.52,365.08,424.813,365.933,422.253,365.933z M423.107,348.867L423.107,348.867
		L423.107,348.867z M378.733,314.733c1.707,0,4.267,0.853,5.12,1.707l37.547,30.72V255h-85.333v93.013l37.547-30.72
		C374.467,315.587,377.027,314.733,378.733,314.733z"/>
	<path d="M233.667,511H45.933c-23.893,0-42.667-18.773-42.667-42.667V255c0-23.893,18.773-42.667,42.667-42.667h34.133
		c0-5.12,3.413-8.533,8.533-8.533H191c5.12,0,8.533,3.413,8.533,8.533h34.133c23.893,0,42.667,18.773,42.667,42.667v213.333
		C276.333,492.227,257.56,511,233.667,511z M45.933,229.4c-14.507,0-25.6,11.093-25.6,25.6v213.333c0,14.507,11.093,25.6,25.6,25.6
		h187.733c14.507,0,25.6-11.093,25.6-25.6V255c0-14.507-11.093-25.6-25.6-25.6H191c-5.12,0-8.533-3.413-8.533-8.533H97.133
		c0,5.12-3.413,8.533-8.533,8.533H45.933z"/>
	<path d="M455.533,511h-153.6c-23.893,0-42.667-18.773-42.667-42.667v-179.2c0-23.893,18.773-42.667,42.667-42.667H319
		c0-4.267,4.267-8.533,8.533-8.533h102.4c4.267,0,8.533,3.413,8.533,8.533h17.067c23.893,0,42.667,18.773,42.667,42.667v179.2
		C498.2,492.227,479.427,511,455.533,511z M301.933,263.533c-14.507,0-25.6,11.093-25.6,25.6v179.2c0,14.507,11.093,25.6,25.6,25.6
		h153.6c14.507,0,25.6-11.093,25.6-25.6v-179.2c0-14.507-11.093-25.6-25.6-25.6h-25.6c-4.267,0-8.533-3.413-8.533-8.533h-85.333
		c0,4.267-4.267,8.533-8.533,8.533H301.933z"/>
	<path d="M267.8,297.667c-5.12,0-8.533-3.413-8.533-8.533V255c0-14.507-11.093-25.6-25.6-25.6H191c-5.12,0-8.533-3.413-8.533-8.533
		H88.6c-5.12,0-8.533-3.413-8.533-8.533V152.6c0-5.12,3.413-8.533,8.533-8.533s8.533,3.413,8.533,8.533v51.2H191
		c5.12,0,8.533,3.413,8.533,8.533h34.133c23.893,0,42.667,18.773,42.667,42.667l0,0c6.827-5.12,16.213-8.533,25.6-8.533H319
		c0-4.267,4.267-8.533,8.533-8.533h76.8V50.2c0-14.507-11.093-25.6-25.6-25.6h-76.8c-5.12,0-8.533-3.413-8.533-8.533h-85.333
		c0,5.12-3.413,8.533-8.533,8.533h-76.8c-14.507,0-25.6,11.093-25.6,25.6v34.133c0,5.12-3.413,8.533-8.533,8.533
		s-8.533-3.413-8.533-8.533V50.2c0-23.893,18.773-42.667,42.667-42.667H191C191,2.413,194.413-1,199.533-1h102.4
		c5.12,0,8.533,3.413,8.533,8.533h68.267c23.893,0,42.667,18.773,42.667,42.667v196.267c0,5.12-3.413,8.533-8.533,8.533h-76.8
		c0,4.267-4.267,8.533-8.533,8.533h-25.6c-14.507,0-25.6,11.093-25.6,25.6C276.333,294.253,272.92,297.667,267.8,297.667z"/>
	<path d="M97.133,118.467c0-5.12-3.413-8.533-8.533-8.533s-8.533,3.413-8.533,8.533S83.48,127,88.6,127
		S97.133,123.587,97.133,118.467"/>
	<path d="M233.667,476.867h-25.6c-5.12,0-8.533-3.413-8.533-8.533c0-5.12,3.413-8.533,8.533-8.533h25.6
		c5.12,0,8.533,3.413,8.533,8.533C242.2,473.453,238.787,476.867,233.667,476.867z"/>
	<path d="M233.667,442.733H191c-5.12,0-8.533-3.413-8.533-8.533c0-5.12,3.413-8.533,8.533-8.533h42.667
		c5.12,0,8.533,3.413,8.533,8.533C242.2,439.32,238.787,442.733,233.667,442.733z"/>
	<path d="M455.533,476.867h-25.6c-5.12,0-8.533-3.413-8.533-8.533c0-5.12,3.413-8.533,8.533-8.533h25.6
		c5.12,0,8.533,3.413,8.533,8.533C464.067,473.453,460.653,476.867,455.533,476.867z"/>
	<path d="M455.533,442.733h-42.667c-5.12,0-8.533-3.413-8.533-8.533c0-5.12,3.413-8.533,8.533-8.533h42.667
		c5.12,0,8.533,3.413,8.533,8.533C464.067,439.32,460.653,442.733,455.533,442.733z"/>
</g>
<g>
</g>
<g>
</g>
<g>
</g>
<g>
</g>
<g>
</g>
<g>
</g>
<g>
</g>
<g>
</g>
<g>
</g>
<g>
</g>
<g>
</g>
<g>
</g>
<g>
</g>
<g>
</g>
<g>
</g>
</svg>
